<svg xmlns="http://www.w3.org/2000/svg" viewBox="0 0 1255.49 862.49"><defs><style>.cls-1{fill:#fff;}.cls-1,.cls-2{stroke:#fff;stroke-miterlimit:10;}.cls-2{fill:none;stroke-width:3px;}</style></defs><title>Asset 1</title><g id="Layer_2" data-name="Layer 2"><g id="Layer_1-2" data-name="Layer 1"><g id="Layer_2-2" data-name="Layer 2"><g id="Layer_10" data-name="Layer 10"><path class="cls-1" d="M534.8,28.2A7.8,7.8,0,1,1,527,36a7.81,7.81,0,0,1,7.8-7.8m0-4A11.8,11.8,0,1,0,546.6,36,11.82,11.82,0,0,0,534.8,24.2Z"/><path class="cls-2" d="M641.9,37.5h-88s-.8,10.2-8.8,13.2"/><path class="cls-2" d="M395.5,37.7h120s-1.1-12.2,6.9-15.2"/><path class="cls-1" d="M1099.8,28.2A7.8,7.8,0,1,1,1092,36a7.81,7.81,0,0,1,7.8-7.8m0-4A11.8,11.8,0,1,0,1111.6,36,11.82,11.82,0,0,0,1099.8,24.2Z"/><path class="cls-2" d="M1110,50.7c8-3,8.8-13.2,8.8-13.2h85.3a14.83,14.83,0,0,1,14.8,14.8V81.7"/><path class="cls-2" d="M960.5,37.7h120s-1.1-12.2,6.9-15.2"/><path class="cls-1" d="M155.2,25.4c.8-1.6,1.6-3.2,2.3-4.7a37.06,37.06,0,0,0,1.9-4.6,36.76,36.76,0,0,0,1.5-4.7c.4-1.6.7-3.3,1.1-5.1a14,14,0,0,1,.2,10.8,19.42,19.42,0,0,1-2.8,4.8A10.29,10.29,0,0,1,155.2,25.4Z"/><path class="cls-1" d="M159.1,27.6c1.4-1.3,2.6-2.4,3.8-3.6s2.4-2.4,3.5-3.6a28.83,28.83,0,0,0,3-3.9c1-1.4,1.8-2.8,2.9-4.4a13.76,13.76,0,0,1-3.7,10.2,16.12,16.12,0,0,1-4.3,3.5A12,12,0,0,1,159.1,27.6Z"/><path class="cls-1" d="M161.5,30.5c1.7-.7,3.3-1.3,4.8-2s3.1-1.4,4.5-2.1,2.8-1.6,4.2-2.5,2.7-2,4.2-3.1a13.73,13.73,0,0,1-7,8.3,15.89,15.89,0,0,1-5.2,1.7A14.37,14.37,0,0,1,161.5,30.5Z"/><path class="cls-1" d="M163.4,35.3c1.8-.2,3.5-.3,5.2-.5s3.3-.4,4.9-.7,3.2-.7,4.8-1.1,3.2-1.1,5-1.6a13.94,13.94,0,0,1-9.2,5.7,20.27,20.27,0,0,1-5.5.1A12.12,12.12,0,0,1,163.4,35.3Z"/><path class="cls-1" d="M163.7,38.8c1.8.5,3.4,1,5,1.5a42.09,42.09,0,0,0,4.8,1.2,38.53,38.53,0,0,0,4.9.7c1.6.2,3.4.2,5.2.3a13.73,13.73,0,0,1-10.6,2,17.5,17.5,0,0,1-5.1-2A11.71,11.71,0,0,1,163.7,38.8Z"/><path class="cls-1" d="M162.1,43c1.5,1.1,2.8,2.2,4.2,3.2s2.7,1.9,4.1,2.8a35.5,35.5,0,0,0,4.3,2.3c1.5.7,3.1,1.3,4.8,2.1a14,14,0,0,1-10.6-1.9,15.85,15.85,0,0,1-4.1-3.6A12.5,12.5,0,0,1,162.1,43Z"/><path class="cls-1" d="M159.6,45.8c1,1.6,1.9,3,2.8,4.4s1.9,2.8,2.8,4.1,2,2.5,3.1,3.7,2.4,2.3,3.7,3.7a13.65,13.65,0,0,1-9.3-5.6,17.72,17.72,0,0,1-2.6-4.9A14,14,0,0,1,159.6,45.8Z"/><path class="cls-1" d="M155.2,48.4c.4,1.8.9,3.4,1.3,5.1a32.31,32.31,0,0,0,1.5,4.7,43.19,43.19,0,0,0,1.9,4.5c.7,1.5,1.6,3,2.4,4.6a14,14,0,0,1-7.2-8.1,16.64,16.64,0,0,1-1-5.4A12.44,12.44,0,0,1,155.2,48.4Z"/><path class="cls-1" d="M150.9,49.6c-.2,1.8-.3,3.5-.5,5.2a41.8,41.8,0,0,0-.2,5,40.28,40.28,0,0,0,.3,4.9c.2,1.7.5,3.3.7,5.2a14,14,0,0,1-4-10,16.11,16.11,0,0,1,.9-5.4A11.89,11.89,0,0,1,150.9,49.6Z"/><path class="cls-1" d="M146.5,48.9c-.8,1.7-1.6,3.2-2.3,4.7a37.06,37.06,0,0,0-1.9,4.6,25.42,25.42,0,0,0-1.4,4.7c-.4,1.6-.7,3.3-1.1,5.1a13.53,13.53,0,0,1-.3-10.8,19.42,19.42,0,0,1,2.8-4.8A10.29,10.29,0,0,1,146.5,48.9Z"/><path class="cls-1" d="M143.2,47c-1.4,1.3-2.6,2.4-3.8,3.6S137,53,136,54.2a28.83,28.83,0,0,0-3,3.9c-1,1.4-1.8,2.8-2.9,4.4a14.09,14.09,0,0,1,3.6-10.2,16.12,16.12,0,0,1,4.3-3.5A12.44,12.44,0,0,1,143.2,47Z"/><path class="cls-1" d="M139.8,43.2c-1.7.8-3.2,1.5-4.7,2.3s-3,1.5-4.4,2.4a36,36,0,0,0-4,2.8c-1.3,1-2.6,2.2-4.1,3.3a13.81,13.81,0,0,1,6.5-8.6,18.68,18.68,0,0,1,5.1-2A10.66,10.66,0,0,1,139.8,43.2Z"/><path class="cls-1" d="M138.2,40c-1.8.1-3.5.2-5.2.4s-3.3.3-4.9.6a41.5,41.5,0,0,0-4.8,1.1c-1.6.5-3.2,1.1-5,1.6a13.81,13.81,0,0,1,9.2-5.6,16.92,16.92,0,0,1,5.5,0A11.66,11.66,0,0,1,138.2,40Z"/><path class="cls-1" d="M138.2,35.5c-1.8-.5-3.4-1-5-1.5a42.09,42.09,0,0,0-4.8-1.2c-1.6-.3-3.2-.5-4.8-.7s-3.4-.1-5.2-.3a13.73,13.73,0,0,1,10.6-2,19.08,19.08,0,0,1,5.2,1.9A18,18,0,0,1,138.2,35.5Z"/><path class="cls-1" d="M139.5,32c-1.5-1.1-2.8-2.2-4.2-3.1s-2.7-1.9-4.1-2.8a35.5,35.5,0,0,0-4.3-2.3c-1.5-.7-3.1-1.3-4.8-2.1a13.93,13.93,0,0,1,10.7,1.9,15.85,15.85,0,0,1,4.1,3.6A13.24,13.24,0,0,1,139.5,32Z"/><path class="cls-1" d="M142.7,28c-1.1-1.5-2-2.9-3-4.3a40.84,40.84,0,0,0-3.1-3.9c-1.1-1.2-2.2-2.4-3.4-3.5s-2.6-2.2-3.9-3.4a14,14,0,0,1,9.6,5,17.22,17.22,0,0,1,2.8,4.7A10.87,10.87,0,0,1,142.7,28Z"/><path class="cls-1" d="M146,25.6c-.4-1.8-.7-3.5-1.1-5.1s-.8-3.2-1.3-4.8-1.1-3.1-1.7-4.6-1.5-3-2.2-4.7a13.88,13.88,0,0,1,6.8,8.4,20.32,20.32,0,0,1,.8,5.5A14.24,14.24,0,0,1,146,25.6Z"/><path class="cls-1" d="M151.1,24.6c.2-1.8.4-3.5.5-5.2s.2-3.3.2-5a40.28,40.28,0,0,0-.3-4.9c-.2-1.7-.5-3.3-.7-5.2a14,14,0,0,1,3.9,10.1,16.54,16.54,0,0,1-.9,5.4A10.9,10.9,0,0,1,151.1,24.6Z"/><path class="cls-1" d="M686.2,22.4c.8-1.6,1.6-3.2,2.3-4.7a37.06,37.06,0,0,0,1.9-4.6,36.76,36.76,0,0,0,1.5-4.7c.4-1.6.7-3.3,1.2-5.1a14,14,0,0,1,.2,10.8,19.42,19.42,0,0,1-2.8,4.8A11.29,11.29,0,0,1,686.2,22.4Z"/><path class="cls-1" d="M690.1,24.6c1.3-1.3,2.6-2.4,3.8-3.6s2.4-2.4,3.5-3.6a28.83,28.83,0,0,0,3-3.9c1-1.4,1.8-2.8,2.9-4.4a13.76,13.76,0,0,1-3.7,10.2,16.12,16.12,0,0,1-4.3,3.5A12,12,0,0,1,690.1,24.6Z"/><path class="cls-1" d="M692.5,27.5c1.7-.7,3.3-1.3,4.8-2l4.5-2.1c1.4-.8,2.8-1.6,4.2-2.5s2.7-2,4.2-3.1a13.73,13.73,0,0,1-7,8.3,15.89,15.89,0,0,1-5.2,1.7A14.37,14.37,0,0,1,692.5,27.5Z"/><path class="cls-1" d="M694.4,32.3c1.8-.1,3.5-.3,5.2-.5s3.3-.4,4.9-.7,3.2-.7,4.8-1.1,3.2-1.1,5-1.6a13.94,13.94,0,0,1-9.2,5.7,20.27,20.27,0,0,1-5.5.1A12.12,12.12,0,0,1,694.4,32.3Z"/><path class="cls-1" d="M694.7,35.8c1.8.5,3.4,1,5,1.5a42.09,42.09,0,0,0,4.8,1.2,39.67,39.67,0,0,0,4.8.7c1.7.2,3.3.2,5.2.3a13.89,13.89,0,0,1-10.7,2,19.32,19.32,0,0,1-5.2-2A13.76,13.76,0,0,1,694.7,35.8Z"/><path class="cls-1" d="M693.1,40c1.5,1.1,2.8,2.2,4.2,3.2s2.7,1.9,4.1,2.8a35.5,35.5,0,0,0,4.3,2.3c1.5.7,3.1,1.3,4.8,2.1a14.37,14.37,0,0,1-10.7-1.9,15.85,15.85,0,0,1-4.1-3.6A13.66,13.66,0,0,1,693.1,40Z"/><path class="cls-1" d="M690.6,42.8c1,1.6,1.8,3,2.8,4.4s1.9,2.8,2.8,4.1,2,2.5,3.1,3.7,2.4,2.3,3.7,3.7a13.65,13.65,0,0,1-9.3-5.6,17.72,17.72,0,0,1-2.6-4.9A14,14,0,0,1,690.6,42.8Z"/><path class="cls-1" d="M686.2,45.4c.5,1.8.8,3.4,1.3,5.1s.9,3.2,1.5,4.7a43.19,43.19,0,0,0,1.9,4.5c.7,1.5,1.6,3,2.4,4.6a14,14,0,0,1-7.2-8.1,16.64,16.64,0,0,1-1-5.4A12.44,12.44,0,0,1,686.2,45.4Z"/><path class="cls-1" d="M681.9,46.6c-.2,1.8-.3,3.5-.5,5.2a41.8,41.8,0,0,0-.2,5,40.28,40.28,0,0,0,.3,4.9c.2,1.7.5,3.3.7,5.2a14,14,0,0,1-4-10,16.11,16.11,0,0,1,.9-5.4A11.89,11.89,0,0,1,681.9,46.6Z"/><path class="cls-1" d="M677.4,45.9c-.8,1.7-1.6,3.2-2.3,4.7a37.06,37.06,0,0,0-1.9,4.6,36.76,36.76,0,0,0-1.5,4.7c-.4,1.6-.7,3.3-1.1,5.1a13.53,13.53,0,0,1-.3-10.8,19.42,19.42,0,0,1,2.8-4.8A13,13,0,0,1,677.4,45.9Z"/><path class="cls-1" d="M674.2,44c-1.3,1.3-2.6,2.4-3.8,3.6S668,50,667,51.2a28.83,28.83,0,0,0-3,3.9c-1,1.4-1.8,2.8-2.9,4.4a14.09,14.09,0,0,1,3.6-10.2,16.12,16.12,0,0,1,4.3-3.5A12.44,12.44,0,0,1,674.2,44Z"/><path class="cls-1" d="M670.7,40.2c-1.7.8-3.2,1.5-4.7,2.3a43.76,43.76,0,0,0-4.3,2.4,36,36,0,0,0-4,2.8c-1.3,1-2.6,2.2-4,3.3a13.81,13.81,0,0,1,6.5-8.6,18.68,18.68,0,0,1,5.1-2A10,10,0,0,1,670.7,40.2Z"/><path class="cls-1" d="M669.2,37c-1.8.1-3.5.2-5.2.4s-3.3.3-4.9.6a41.5,41.5,0,0,0-4.8,1.1c-1.6.5-3.2,1.1-5,1.6a13.81,13.81,0,0,1,9.2-5.6,16.92,16.92,0,0,1,5.5,0A11.66,11.66,0,0,1,669.2,37Z"/><path class="cls-1" d="M669.2,32.5c-1.8-.5-3.4-1-5-1.5a42.09,42.09,0,0,0-4.8-1.2c-1.6-.3-3.2-.5-4.8-.7s-3.4-.1-5.2-.3a13.73,13.73,0,0,1,10.6-2,19.08,19.08,0,0,1,5.2,1.9A18,18,0,0,1,669.2,32.5Z"/><path class="cls-1" d="M670.5,29c-1.5-1.1-2.8-2.2-4.2-3.1s-2.7-1.9-4.1-2.8a35.5,35.5,0,0,0-4.3-2.3c-1.5-.7-3.1-1.3-4.8-2.1a13.93,13.93,0,0,1,10.7,1.9,15.85,15.85,0,0,1,4.1,3.6A13.24,13.24,0,0,1,670.5,29Z"/><path class="cls-1" d="M673.7,25c-1.1-1.5-2-2.9-3-4.3a40.84,40.84,0,0,0-3.1-3.9c-1.1-1.2-2.2-2.4-3.4-3.5s-2.5-2.2-3.9-3.4a14,14,0,0,1,9.6,5,17.22,17.22,0,0,1,2.8,4.7A10.87,10.87,0,0,1,673.7,25Z"/><path class="cls-1" d="M677,22.6c-.4-1.8-.7-3.5-1.1-5.1s-.8-3.2-1.3-4.8-1.1-3.1-1.7-4.6-1.5-3-2.2-4.7a13.88,13.88,0,0,1,6.8,8.4,20.32,20.32,0,0,1,.8,5.5A14.24,14.24,0,0,1,677,22.6Z"/><path class="cls-1" d="M682.1,21.6c.2-1.8.4-3.5.5-5.2s.2-3.3.2-4.9a40.28,40.28,0,0,0-.3-4.9c-.2-1.7-.5-3.3-.7-5.2a14,14,0,0,1,3.9,10.1,16.16,16.16,0,0,1-1,5.4A10.38,10.38,0,0,1,682.1,21.6Z"/><path class="cls-1" d="M278.2,28.4l3.2,6.5,7.2,1L283.5,41l1.2,7.1-6.4-3.4-6.4,3.4,1.2-7.1-5.2-5,7.2-1,3.1-6.6m0-8.9-3.6,7.3-2.3,4.6-5.1.7-8,1.2L265,39l3.6,3.5-.9,5.1-1.4,8,7.2-3.8,4.5-2.4,4.5,2.4,7.2,3.7-1.4-8-.9-5,3.7-3.6,5.8-5.7-8-1.2-5.1-.7-2.3-4.6-3.3-7.2Z"/><path class="cls-1" d="M824.2,28.4l3.2,6.5,7.2,1L829.5,41l1.2,7.1-6.4-3.4-6.4,3.4,1.2-7.1-5.2-5,7.2-1,3.1-6.6m0-8.9-3.6,7.3-2.3,4.6-5.1.7-8,1.2L811,39l3.6,3.5-.9,5.1-1.4,8,7.2-3.8,4.5-2.4,4.5,2.4,7.2,3.7-1.4-8-.9-5,3.7-3.6,5.8-5.7-8-1.2-5.1-.7-2.3-4.6-3.3-7.2Z"/><path class="cls-1" d="M706.6,818.7a7.8,7.8,0,1,1-7.8,7.8,7.81,7.81,0,0,1,7.8-7.8m0-4a11.75,11.75,0,1,0,11.8,11.8,11.74,11.74,0,0,0-11.8-11.8Z"/><path class="cls-2" d="M598.5,824.9h89s.9-10.2,8.9-13.2"/><path class="cls-2" d="M845.9,824.7h-120s1.2,12.2-6.8,15.2"/><path class="cls-1" d="M141.6,818.7a7.8,7.8,0,1,1-7.8,7.8,7.81,7.81,0,0,1,7.8-7.8m0-4a11.75,11.75,0,1,0,11.8,11.8,11.74,11.74,0,0,0-11.8-11.8Z"/><path class="cls-2" d="M131.4,811.7c-8,3-8.8,13.2-8.8,13.2H53.4a14.3,14.3,0,0,1-14.3-14.3h0v-2.8"/><path class="cls-2" d="M279.9,824.7h-120s1.2,12.2-6.8,15.2"/><path class="cls-1" d="M1086.2,837.1c-.8,1.7-1.6,3.2-2.3,4.7s-1.4,3-2,4.5a36.76,36.76,0,0,0-1.5,4.7c-.4,1.6-.7,3.3-1.1,5.1a14,14,0,0,1-.2-10.8,19.42,19.42,0,0,1,2.8-4.8A11,11,0,0,1,1086.2,837.1Z"/><path class="cls-1" d="M1082.3,834.9c-1.3,1.3-2.6,2.4-3.8,3.6s-2.4,2.4-3.4,3.6a35.73,35.73,0,0,0-3,3.8c-1,1.3-1.8,2.8-2.9,4.4a14.09,14.09,0,0,1,3.6-10.2,16.12,16.12,0,0,1,4.3-3.5A10.69,10.69,0,0,1,1082.3,834.9Z"/><path class="cls-1" d="M1079.9,831.9c-1.7.7-3.3,1.3-4.8,2l-4.5,2.1c-1.4.8-2.8,1.6-4.2,2.5s-2.7,2-4.2,3.1a15,15,0,0,1,12.2-10A16.69,16.69,0,0,1,1079.9,831.9Z"/><path class="cls-1" d="M1078.1,827.1c-1.8.2-3.5.3-5.2.5s-3.3.4-4.9.7-3.2.7-4.8,1.1-3.2,1.1-5,1.6a13.94,13.94,0,0,1,9.2-5.7,20.27,20.27,0,0,1,5.5-.1A14.21,14.21,0,0,1,1078.1,827.1Z"/><path class="cls-1" d="M1077.7,823.6c-1.8-.5-3.4-1-5-1.5a42.09,42.09,0,0,0-4.8-1.2c-1.6-.3-3.2-.5-4.8-.7s-3.4-.2-5.2-.3a13.73,13.73,0,0,1,10.6-2,19.32,19.32,0,0,1,5.2,2A12.92,12.92,0,0,1,1077.7,823.6Z"/><path class="cls-1" d="M1079.3,819.4c-1.5-1.1-2.8-2.2-4.2-3.2s-2.7-1.9-4.1-2.8a25.49,25.49,0,0,0-4.3-2.3c-1.5-.7-3.1-1.3-4.8-2.1a14.37,14.37,0,0,1,10.7,1.9,14.53,14.53,0,0,1,4.1,3.7A12.48,12.48,0,0,1,1079.3,819.4Z"/><path class="cls-1" d="M1081.8,816.6c-1-1.6-1.8-3-2.8-4.4s-1.8-2.8-2.8-4.1a36.85,36.85,0,0,0-3.2-3.7c-1.1-1.2-2.4-2.3-3.7-3.7a13.65,13.65,0,0,1,9.3,5.6,17.72,17.72,0,0,1,2.6,4.9A14.06,14.06,0,0,1,1081.8,816.6Z"/><path class="cls-1" d="M1086.2,814c-.4-1.8-.8-3.4-1.3-5.1s-.9-3.2-1.5-4.7a43.19,43.19,0,0,0-1.9-4.5c-.7-1.5-1.6-3-2.4-4.6a14,14,0,0,1,7.2,8.1,16.64,16.64,0,0,1,1,5.4A12.74,12.74,0,0,1,1086.2,814Z"/><path class="cls-1" d="M1090.5,812.8c.2-1.8.3-3.5.5-5.2a41.8,41.8,0,0,0,.2-5,40.28,40.28,0,0,0-.3-4.9c-.2-1.7-.5-3.3-.8-5.2a14,14,0,0,1,4,10,16.54,16.54,0,0,1-.9,5.4A10.72,10.72,0,0,1,1090.5,812.8Z"/><path class="cls-1" d="M1095,813.5c.8-1.7,1.6-3.2,2.3-4.7a37.06,37.06,0,0,0,1.9-4.6,25.42,25.42,0,0,0,1.4-4.7c.4-1.6.7-3.3,1.1-5.1a14,14,0,0,1,.2,10.8,19.42,19.42,0,0,1-2.8,4.8A10.68,10.68,0,0,1,1095,813.5Z"/><path class="cls-1" d="M1098.2,815.4c1.3-1.3,2.6-2.4,3.8-3.6s2.3-2.4,3.4-3.6a28.83,28.83,0,0,0,3-3.9c1-1.3,1.8-2.8,2.8-4.4a14.24,14.24,0,0,1-3.6,10.2,16.12,16.12,0,0,1-4.3,3.5A11.57,11.57,0,0,1,1098.2,815.4Z"/><path class="cls-1" d="M1101.7,819.2c1.7-.8,3.2-1.5,4.7-2.3a43.76,43.76,0,0,0,4.3-2.4,36,36,0,0,0,4-2.8c1.3-1,2.6-2.2,4.1-3.3a13.81,13.81,0,0,1-6.5,8.6,18.68,18.68,0,0,1-5.1,2A10.32,10.32,0,0,1,1101.7,819.2Z"/><path class="cls-1" d="M1103.2,822.4c1.8-.1,3.5-.2,5.2-.4s3.3-.3,4.9-.6a41.5,41.5,0,0,0,4.8-1.1c1.6-.4,3.2-1,5-1.6a13.45,13.45,0,0,1-9.2,5.6,16.92,16.92,0,0,1-5.5,0A11.66,11.66,0,0,1,1103.2,822.4Z"/><path class="cls-1" d="M1103.2,826.9c1.8.5,3.4,1,5,1.5s3.2.8,4.8,1.2,3.2.5,4.8.7,3.4.1,5.2.3a13.73,13.73,0,0,1-10.6,2,19.08,19.08,0,0,1-5.2-1.9A18,18,0,0,1,1103.2,826.9Z"/><path class="cls-1" d="M1101.9,830.4c1.5,1.1,2.8,2.2,4.2,3.2s2.7,1.9,4.1,2.8a35.5,35.5,0,0,0,4.3,2.3c1.5.7,3.1,1.3,4.8,2.1a13.93,13.93,0,0,1-10.7-1.9,15.85,15.85,0,0,1-4.1-3.6A13.66,13.66,0,0,1,1101.9,830.4Z"/><path class="cls-1" d="M1098.7,834.4c1.1,1.5,2,2.9,3,4.3s2,2.7,3,3.9,2.2,2.4,3.4,3.5,2.5,2.2,3.9,3.5a14,14,0,0,1-9.6-5,15,15,0,0,1-2.8-4.7A13,13,0,0,1,1098.7,834.4Z"/><path class="cls-1" d="M1095.4,836.8c.4,1.8.7,3.5,1.1,5.1s.8,3.3,1.3,4.8,1.1,3.1,1.7,4.6,1.5,3,2.2,4.7a13.88,13.88,0,0,1-6.8-8.4,20.32,20.32,0,0,1-.8-5.5A14.24,14.24,0,0,1,1095.4,836.8Z"/><path class="cls-1" d="M1090.3,837.8c-.2,1.8-.4,3.5-.5,5.2s-.2,3.3-.3,5a40.28,40.28,0,0,0,.3,4.9c.2,1.7.5,3.3.7,5.2a14,14,0,0,1-3.9-10.1,16.54,16.54,0,0,1,.9-5.4A11.51,11.51,0,0,1,1090.3,837.8Z"/><path class="cls-1" d="M555.2,840.1c-.8,1.7-1.6,3.2-2.3,4.7s-1.4,3-2,4.5a36.76,36.76,0,0,0-1.5,4.7c-.4,1.6-.7,3.3-1.1,5.1a14,14,0,0,1-.2-10.8,19.42,19.42,0,0,1,2.8-4.8A11,11,0,0,1,555.2,840.1Z"/><path class="cls-1" d="M551.3,837.9c-1.3,1.3-2.6,2.4-3.8,3.6s-2.4,2.4-3.4,3.6a35.73,35.73,0,0,0-3,3.8c-1,1.3-1.8,2.8-2.9,4.4a14.09,14.09,0,0,1,3.6-10.2,16.12,16.12,0,0,1,4.3-3.5A10.69,10.69,0,0,1,551.3,837.9Z"/><path class="cls-1" d="M548.9,834.9c-1.7.7-3.3,1.3-4.8,2l-4.5,2.1c-1.4.8-2.8,1.6-4.2,2.5s-2.7,2-4.2,3.1a15,15,0,0,1,12.2-10A16.69,16.69,0,0,1,548.9,834.9Z"/><path class="cls-1" d="M547.1,830.1c-1.8.2-3.5.3-5.2.5s-3.3.4-4.9.7-3.2.7-4.8,1.1-3.2,1.1-5,1.6a13.94,13.94,0,0,1,9.2-5.7,20.27,20.27,0,0,1,5.5-.1A14.21,14.21,0,0,1,547.1,830.1Z"/><path class="cls-1" d="M546.7,826.6c-1.8-.5-3.4-1-5-1.5a42.09,42.09,0,0,0-4.8-1.2c-1.6-.3-3.2-.5-4.8-.7s-3.4-.2-5.2-.3a13.73,13.73,0,0,1,10.6-2,19.32,19.32,0,0,1,5.2,2A12.92,12.92,0,0,1,546.7,826.6Z"/><path class="cls-1" d="M548.3,822.4c-1.5-1.1-2.8-2.2-4.2-3.2s-2.7-1.9-4.1-2.8a25.49,25.49,0,0,0-4.3-2.3c-1.5-.7-3.1-1.3-4.8-2.1a14.37,14.37,0,0,1,10.7,1.9,14.53,14.53,0,0,1,4.1,3.7A12.48,12.48,0,0,1,548.3,822.4Z"/><path class="cls-1" d="M550.8,819.6c-1-1.6-1.8-3-2.8-4.4s-1.8-2.8-2.8-4.1a36.85,36.85,0,0,0-3.2-3.7c-1.1-1.2-2.4-2.3-3.7-3.7a13.65,13.65,0,0,1,9.3,5.6,17.72,17.72,0,0,1,2.6,4.9A14.06,14.06,0,0,1,550.8,819.6Z"/><path class="cls-1" d="M555.2,817c-.5-1.8-.8-3.4-1.3-5.1s-.9-3.2-1.5-4.7a43.19,43.19,0,0,0-1.9-4.5c-.7-1.5-1.6-3-2.4-4.6a14,14,0,0,1,7.2,8.1,16.64,16.64,0,0,1,1,5.4A12.74,12.74,0,0,1,555.2,817Z"/><path class="cls-1" d="M559.5,815.8c.2-1.8.3-3.5.5-5.2a41.8,41.8,0,0,0,.2-5,40.28,40.28,0,0,0-.3-4.9c-.2-1.7-.5-3.3-.8-5.2a14,14,0,0,1,4,10,16.54,16.54,0,0,1-.9,5.4A10.72,10.72,0,0,1,559.5,815.8Z"/><path class="cls-1" d="M564,816.5c.8-1.7,1.6-3.2,2.3-4.7a59.89,59.89,0,0,0,3.4-9.3c.4-1.6.7-3.3,1.1-5.1a14,14,0,0,1,.2,10.8,19.42,19.42,0,0,1-2.8,4.8A11.77,11.77,0,0,1,564,816.5Z"/><path class="cls-1" d="M567.2,818.4c1.3-1.3,2.6-2.4,3.8-3.6s2.3-2.4,3.4-3.6a28.83,28.83,0,0,0,3-3.9c1-1.3,1.8-2.8,2.8-4.4a14.24,14.24,0,0,1-3.6,10.2,16.12,16.12,0,0,1-4.3,3.5A11.57,11.57,0,0,1,567.2,818.4Z"/><path class="cls-1" d="M570.7,822.2c1.7-.8,3.2-1.5,4.7-2.3a43.76,43.76,0,0,0,4.3-2.4,36,36,0,0,0,4-2.8c1.3-1,2.6-2.2,4-3.3a13.81,13.81,0,0,1-6.5,8.6,18.68,18.68,0,0,1-5.1,2A10,10,0,0,1,570.7,822.2Z"/><path class="cls-1" d="M572.2,825.4c1.8-.1,3.5-.2,5.2-.4s3.3-.3,4.9-.6a41.5,41.5,0,0,0,4.8-1.1c1.6-.4,3.2-1,5-1.6a13.45,13.45,0,0,1-9.2,5.6,16.92,16.92,0,0,1-5.5,0A11.66,11.66,0,0,1,572.2,825.4Z"/><path class="cls-1" d="M572.2,829.9c1.8.5,3.4,1,5,1.5s3.2.8,4.8,1.2,3.2.5,4.8.7,3.4.1,5.2.3a13.73,13.73,0,0,1-10.6,2,19.08,19.08,0,0,1-5.2-1.9A18,18,0,0,1,572.2,829.9Z"/><path class="cls-1" d="M570.9,833.4c1.5,1.1,2.8,2.2,4.2,3.2s2.7,1.9,4.1,2.8a35.5,35.5,0,0,0,4.3,2.3c1.5.7,3.1,1.3,4.8,2.1a13.93,13.93,0,0,1-10.7-1.9,15.85,15.85,0,0,1-4.1-3.6A13.66,13.66,0,0,1,570.9,833.4Z"/><path class="cls-1" d="M567.7,837.4c1.1,1.5,2,2.9,3,4.3s2,2.7,3,3.9,2.2,2.4,3.4,3.5,2.5,2.2,3.9,3.5a14,14,0,0,1-9.6-5,15,15,0,0,1-2.8-4.7A13,13,0,0,1,567.7,837.4Z"/><path class="cls-1" d="M564.4,839.8c.4,1.8.7,3.5,1.1,5.1s.8,3.3,1.3,4.8,1.1,3.1,1.7,4.6,1.5,3,2.2,4.7a13.88,13.88,0,0,1-6.8-8.4,20.32,20.32,0,0,1-.8-5.5A14.24,14.24,0,0,1,564.4,839.8Z"/><path class="cls-1" d="M559.3,840.8c-.2,1.8-.4,3.5-.5,5.2s-.2,3.3-.3,5a40.28,40.28,0,0,0,.3,4.9c.2,1.7.5,3.3.7,5.2a14,14,0,0,1-3.9-10.1,16.54,16.54,0,0,1,.9-5.4A11.51,11.51,0,0,1,559.3,840.8Z"/><path class="cls-1" d="M871.8,842.1a1.8,1.8,0,0,1-1.7-1.3A18.59,18.59,0,0,0,852.5,828a17.37,17.37,0,0,0-16.6,12.3,1.72,1.72,0,0,1-1.8,1.3h0a1.74,1.74,0,0,1-1.7-1.2,21.47,21.47,0,0,1,12.7-27.7,21.23,21.23,0,0,1,7.5-1.4,23.08,23.08,0,0,1,3.7.3c11.1,1.9,19.1,11.4,18.7,22.1a20.37,20.37,0,0,1-1.6,7.3A1.71,1.71,0,0,1,871.8,842.1Z"/><path class="cls-1" d="M852.5,811.7a23.08,23.08,0,0,1,3.7.3c10.7,1.8,18.8,10.9,18.3,21.7a19.84,19.84,0,0,1-1.6,7.2,1.3,1.3,0,0,1-1.2.8,1.38,1.38,0,0,1-1.3-1c-2.2-7.5-9.8-13.1-17.9-13.1a17.83,17.83,0,0,0-17,12.5,1.63,1.63,0,0,1-1.5,1.1,1.5,1.5,0,0,1-1.4-1,21,21,0,0,1,19.9-28.5m0-.8a21.89,21.89,0,0,0-21.9,21.9,22.77,22.77,0,0,0,1.4,7.7,2.14,2.14,0,0,0,2.9,1.3,2.12,2.12,0,0,0,1.4-1.5,16.92,16.92,0,0,1,16.2-12,18,18,0,0,1,17.2,12.6,2.13,2.13,0,0,0,2,1.5,2.05,2.05,0,0,0,1.9-1.3,21.38,21.38,0,0,0,1.6-7.4c.4-10.9-7.7-20.6-19-22.5a24,24,0,0,0-3.7-.3Z"/><path class="cls-1" d="M304.1,842.1a1.71,1.71,0,0,1-1.7-1.3A18.56,18.56,0,0,0,284.8,828a17.37,17.37,0,0,0-16.6,12.3,1.72,1.72,0,0,1-1.8,1.3h0a2,2,0,0,1-1.8-1.2,21.68,21.68,0,0,1,20.2-29.1,23.08,23.08,0,0,1,3.7.3c11.1,1.9,19.1,11.4,18.6,22.1a20.37,20.37,0,0,1-1.6,7.3A1.32,1.32,0,0,1,304.1,842.1Z"/><path class="cls-1" d="M284.9,811.7a24,24,0,0,1,3.7.3c10.6,1.8,18.8,10.9,18.3,21.7a19.84,19.84,0,0,1-1.6,7.2,1.32,1.32,0,0,1-2.5-.2,18.79,18.79,0,0,0-17.9-13.1,17.83,17.83,0,0,0-17,12.5,1.63,1.63,0,0,1-1.5,1.1,1.5,1.5,0,0,1-1.4-1A21.1,21.1,0,0,1,277.5,813a20.23,20.23,0,0,1,7.4-1.3m-.1-.8a21.81,21.81,0,0,0-20.5,29.5,2.14,2.14,0,0,0,2.9,1.3,2.12,2.12,0,0,0,1.4-1.5,16.92,16.92,0,0,1,16.2-12A18,18,0,0,1,302,840.8a2.13,2.13,0,0,0,2,1.5,2.05,2.05,0,0,0,1.9-1.3,21.38,21.38,0,0,0,1.6-7.4c.5-10.9-7.7-20.6-19-22.5-1.2-.1-2.4-.2-3.7-.2Z"/><path class="cls-1" d="M31.1,551.7a21.23,21.23,0,0,1-7.5-1.4,1.84,1.84,0,0,1-1.1-2.4,1.87,1.87,0,0,1,1.2-1.1A17.37,17.37,0,0,0,36,530.2a18.59,18.59,0,0,0-12.8-17.6,1.84,1.84,0,0,1-1.3-1.6,1.43,1.43,0,0,1,1-1.6,20.37,20.37,0,0,1,7.3-1.6h.9c10.5,0,19.4,7.8,21.3,18.6a21.67,21.67,0,0,1-21.3,25.3Z"/><path class="cls-1" d="M31.1,508.1c10.4,0,19.1,8,20.9,18.4A21.22,21.22,0,0,1,23.7,550a1.48,1.48,0,0,1-.9-1.9,1.5,1.5,0,0,1,1-.9,17.58,17.58,0,0,0,12.5-17,18.79,18.79,0,0,0-13.1-17.9,1.28,1.28,0,0,1-.9-1.6,1.42,1.42,0,0,1,.8-.9,22.15,22.15,0,0,1,7.2-1.6l.8-.1m0-.7h-.9a20.43,20.43,0,0,0-7.4,1.6,2.09,2.09,0,0,0-1.3,2,2,2,0,0,0,1.5,1.9,18.13,18.13,0,0,1,12.6,17.2,16.74,16.74,0,0,1-12,16.2,2.22,2.22,0,0,0-1.5,2.8,2,2,0,0,0,1.3,1.4,22.17,22.17,0,1,0,7.7-43.1Z"/><path class="cls-1" d="M387.9,50.1a21.55,21.55,0,0,1-21.5-21.6,21.23,21.23,0,0,1,1.4-7.5,2,2,0,0,1,1.8-1.2,1.83,1.83,0,0,1,1.8,1.3A17.37,17.37,0,0,0,388,33.4a18.56,18.56,0,0,0,17.6-12.8,1.83,1.83,0,0,1,1.7-1.3,1.54,1.54,0,0,1,1.5,1,20.37,20.37,0,0,1,1.6,7.3c.4,10.7-7.6,20.3-18.6,22.1-1.4.2-2.7.3-3.9.4Z"/><path class="cls-1" d="M407.1,19.7a1.3,1.3,0,0,1,1.2.8,22.15,22.15,0,0,1,1.6,7.2c.4,10.8-7.7,19.9-18.3,21.7a22.18,22.18,0,0,1-3.7.3,21.21,21.21,0,0,1-21.2-21.2,23.52,23.52,0,0,1,1.3-7.4,1.48,1.48,0,0,1,1.9-.9,1.5,1.5,0,0,1,.9,1,17.58,17.58,0,0,0,17,12.5,18.79,18.79,0,0,0,17.9-13.1,1.69,1.69,0,0,1,1.4-.9m0-.7a2.13,2.13,0,0,0-2,1.5,18.26,18.26,0,0,1-17.2,12.6,16.74,16.74,0,0,1-16.2-12,2.27,2.27,0,0,0-4.3-.1,22,22,0,0,0,20.5,29.6,24.33,24.33,0,0,0,3.8-.3c11.3-1.9,19.4-11.5,19-22.5a20.43,20.43,0,0,0-1.6-7.4,2.13,2.13,0,0,0-2-1.4Z"/><path class="cls-1" d="M944.9,50.1a21.55,21.55,0,0,1-21.5-21.6,21.23,21.23,0,0,1,1.4-7.5,2,2,0,0,1,1.8-1.2,1.83,1.83,0,0,1,1.8,1.3A17.37,17.37,0,0,0,945,33.4a18.56,18.56,0,0,0,17.6-12.8,1.83,1.83,0,0,1,1.7-1.3,1.54,1.54,0,0,1,1.5,1,20.37,20.37,0,0,1,1.6,7.3c.4,10.7-7.6,20.3-18.6,22.1-1.4.2-2.7.3-3.9.4Z"/><path class="cls-1" d="M964.1,19.7a1.3,1.3,0,0,1,1.2.8,22.15,22.15,0,0,1,1.6,7.2c.4,10.8-7.7,19.9-18.3,21.7a22.18,22.18,0,0,1-3.7.3,21.21,21.21,0,0,1-21.2-21.2,23.52,23.52,0,0,1,1.3-7.4,1.48,1.48,0,0,1,1.9-.9,1.5,1.5,0,0,1,.9,1,17.58,17.58,0,0,0,17,12.5,18.79,18.79,0,0,0,17.9-13.1,1.69,1.69,0,0,1,1.4-.9m0-.7a2.13,2.13,0,0,0-2,1.5,18.26,18.26,0,0,1-17.2,12.6,16.74,16.74,0,0,1-16.2-12,2.27,2.27,0,0,0-4.3-.1,22,22,0,0,0,20.5,29.6,24.33,24.33,0,0,0,3.8-.3c11.3-1.9,19.4-11.5,19-22.5a20.43,20.43,0,0,0-1.6-7.4,2,2,0,0,0-2-1.4Z"/><path class="cls-1" d="M1226.5,374.7c-10.5,0-19.4-7.9-21.3-18.7a21.54,21.54,0,0,1,17.5-24.9,22.18,22.18,0,0,1,3.7-.3,21.23,21.23,0,0,1,7.5,1.4,1.81,1.81,0,0,1,1.1,2.4,1.87,1.87,0,0,1-1.2,1.1,17.37,17.37,0,0,0-12.3,16.6,18.55,18.55,0,0,0,12.9,17.6,1.84,1.84,0,0,1,1.3,1.6,1.54,1.54,0,0,1-1,1.6,20.37,20.37,0,0,1-7.3,1.6Z"/><path class="cls-1" d="M1226.4,331.1a23.52,23.52,0,0,1,7.4,1.3,1.43,1.43,0,0,1,.8,2,2,2,0,0,1-.9.9,17.92,17.92,0,0,0-12.6,17,18.79,18.79,0,0,0,13.1,17.9,1.28,1.28,0,0,1,.9,1.6,1.42,1.42,0,0,1-.8.9,22.15,22.15,0,0,1-7.2,1.6h-.8c-10.4,0-19.1-8-20.9-18.4a21.19,21.19,0,0,1,17.2-24.5,26.36,26.36,0,0,1,3.8-.3m0-.7a21.89,21.89,0,0,0-21.9,21.9,24.33,24.33,0,0,0,.3,3.8c1.8,11,10.9,19,21.6,19h.9a22.76,22.76,0,0,0,7.4-1.6,2.09,2.09,0,0,0,1.3-2,1.93,1.93,0,0,0-1.5-1.9,18.13,18.13,0,0,1-12.6-17.2,16.74,16.74,0,0,1,12-16.2,2.22,2.22,0,0,0,1.5-2.8,2,2,0,0,0-1.4-1.4,18.2,18.2,0,0,0-7.6-1.6Z"/><path class="cls-1" d="M969.6,814.3l-1.2,7.1,5.2,5-7.2,1-3.2,6.5-3.2-6.5-7.2-1,5.2-5-1.2-7.1,6.4,3.4,6.4-3.4m5.3-7.3-7.2,3.8-4.5,2.4-4.5-2.4-7.2-3.8,1.4,8,.9,5-3.7,3.6-5.8,5.7,8,1.2,5.1.7,2.3,4.6,3.6,7.3,3.6-7.3,2.3-4.6,5.1-.7,8-1.2-5.8-5.7-3.7-3.6.9-5,1.2-8Z"/><path class="cls-1" d="M423.6,814.3l-1.2,7.1,5.2,5-7.2,1-3.2,6.5-3.2-6.5-7.2-1,5.2-5-1.2-7.1,6.4,3.4,6.4-3.4m5.3-7.3-7.2,3.8-4.5,2.4-4.5-2.4-7.2-3.8,1.4,8,.9,5-3.7,3.6-5.8,5.7,8,1.2,5.1.7,2.3,4.6,3.6,7.3,3.6-7.3,2.3-4.6,5.1-.7,8-1.2-5.8-5.7-3.7-3.6.9-5,1.2-8Z"/><path class="cls-1" d="M1219.5,496a7.8,7.8,0,1,1-7.8,7.8,7.81,7.81,0,0,1,7.8-7.8h0m0-4a11.8,11.8,0,1,0,11.8,11.8,11.82,11.82,0,0,0-11.8-11.8Z"/><path class="cls-2" d="M1217.9,607.9v-85s-10.2-.8-13.2-8.8"/><path class="cls-2" d="M1218.7,364.5v120s12.2-1.2,15.2,6.8"/><path class="cls-1" d="M1230.1,124.2c1.7.8,3.2,1.6,4.7,2.3a59.89,59.89,0,0,0,9.3,3.4c1.6.4,3.3.7,5.1,1.1a14,14,0,0,1-10.8.2,19.42,19.42,0,0,1-4.8-2.8A9.57,9.57,0,0,1,1230.1,124.2Z"/><path class="cls-1" d="M1227.8,128.1c1.3,1.3,2.4,2.6,3.6,3.8s2.4,2.4,3.6,3.4a35.73,35.73,0,0,0,3.8,3c1.3,1,2.8,1.8,4.4,2.9a14.09,14.09,0,0,1-10.2-3.6,16.12,16.12,0,0,1-3.5-4.3A13.29,13.29,0,0,1,1227.8,128.1Z"/><path class="cls-1" d="M1225,130.5c.7,1.7,1.3,3.3,2,4.8s1.4,3.1,2.1,4.5,1.6,2.8,2.5,4.2,2,2.7,3.1,4.2a13.73,13.73,0,0,1-8.3-7,15.89,15.89,0,0,1-1.7-5.2A12.64,12.64,0,0,1,1225,130.5Z"/><path class="cls-1" d="M1220.1,132.4c.2,1.8.3,3.5.4,5.2a38.53,38.53,0,0,0,.7,4.9c.3,1.6.7,3.2,1.1,4.8s1.1,3.2,1.6,5a13.94,13.94,0,0,1-5.7-9.2,20.27,20.27,0,0,1-.1-5.5A15.62,15.62,0,0,1,1220.1,132.4Z"/><path class="cls-1" d="M1216.6,132.7c-.5,1.8-1,3.4-1.5,5a42.09,42.09,0,0,0-1.2,4.8c-.3,1.6-.5,3.2-.7,4.9s-.2,3.4-.3,5.2a13.73,13.73,0,0,1-2-10.6,17.5,17.5,0,0,1,2-5.1A11.71,11.71,0,0,1,1216.6,132.7Z"/><path class="cls-1" d="M1212.4,131.1c-1.1,1.5-2.2,2.8-3.2,4.2s-1.9,2.7-2.8,4.1a25.49,25.49,0,0,0-2.3,4.3c-.7,1.5-1.3,3.1-2.1,4.8a14,14,0,0,1,1.9-10.6,14.53,14.53,0,0,1,3.7-4.1A11.48,11.48,0,0,1,1212.4,131.1Z"/><path class="cls-1" d="M1209.6,128.6c-1.6,1-3,1.8-4.4,2.8s-2.8,1.9-4.1,2.8a28.33,28.33,0,0,0-3.7,3.2c-1.2,1.1-2.3,2.4-3.7,3.7a13.65,13.65,0,0,1,5.6-9.3,17.72,17.72,0,0,1,4.9-2.6A12.36,12.36,0,0,1,1209.6,128.6Z"/><path class="cls-1" d="M1207,124.2c-1.8.4-3.4.8-5.1,1.3s-3.2.9-4.7,1.5a43.19,43.19,0,0,0-4.5,1.9c-1.5.7-3,1.6-4.6,2.4a14,14,0,0,1,8.1-7.2,16.64,16.64,0,0,1,5.4-1A12.74,12.74,0,0,1,1207,124.2Z"/><path class="cls-1" d="M1205.8,119.9c-1.8-.2-3.5-.3-5.2-.5a41.8,41.8,0,0,0-5-.2,40.28,40.28,0,0,0-4.9.3c-1.7.2-3.3.5-5.2.7a14,14,0,0,1,10-4,16.11,16.11,0,0,1,5.4.9A11.89,11.89,0,0,1,1205.8,119.9Z"/><path class="cls-1" d="M1206.5,115.5c-1.7-.8-3.2-1.6-4.7-2.3a37.06,37.06,0,0,0-4.6-1.9,25.42,25.42,0,0,0-4.7-1.4c-1.6-.4-3.3-.7-5.1-1.1a14,14,0,0,1,10.8-.2,19.42,19.42,0,0,1,4.8,2.8A9.4,9.4,0,0,1,1206.5,115.5Z"/><path class="cls-1" d="M1208.4,112.2c-1.3-1.3-2.4-2.6-3.6-3.8s-2.4-2.4-3.6-3.4a28.83,28.83,0,0,0-3.9-3c-1.3-1-2.8-1.8-4.4-2.9a14.24,14.24,0,0,1,10.2,3.6,16.12,16.12,0,0,1,3.5,4.3A12.44,12.44,0,0,1,1208.4,112.2Z"/><path class="cls-1" d="M1212.2,108.7c-.8-1.7-1.5-3.2-2.3-4.7a43.76,43.76,0,0,0-2.4-4.3,36,36,0,0,0-2.8-4c-1-1.3-2.2-2.6-3.3-4.1a13.81,13.81,0,0,1,8.6,6.5,18.68,18.68,0,0,1,2,5.1A10.32,10.32,0,0,1,1212.2,108.7Z"/><path class="cls-1" d="M1215.4,107.2c-.1-1.8-.2-3.5-.4-5.2s-.3-3.3-.6-4.9a41.5,41.5,0,0,0-1.1-4.8c-.4-1.6-1.1-3.2-1.6-5a13.45,13.45,0,0,1,5.6,9.2,16.92,16.92,0,0,1,0,5.5A11.66,11.66,0,0,1,1215.4,107.2Z"/><path class="cls-1" d="M1219.9,107.2c.5-1.8,1-3.4,1.5-5s.8-3.2,1.2-4.8.5-3.2.7-4.8.1-3.4.3-5.2a13.73,13.73,0,0,1,2,10.6,19.08,19.08,0,0,1-1.9,5.2A18,18,0,0,1,1219.9,107.2Z"/><path class="cls-1" d="M1223.4,108.5c1.1-1.5,2.2-2.8,3.2-4.2s1.9-2.7,2.8-4.1a35.5,35.5,0,0,0,2.3-4.3c.7-1.5,1.3-3.1,2.1-4.8a13.93,13.93,0,0,1-1.9,10.7,15.85,15.85,0,0,1-3.6,4.1A13.66,13.66,0,0,1,1223.4,108.5Z"/><path class="cls-1" d="M1227.4,111.7c1.5-1.1,2.9-2,4.3-3a40.84,40.84,0,0,0,3.9-3.1c1.2-1.1,2.4-2.2,3.5-3.4s2.2-2.6,3.5-3.9a14,14,0,0,1-5,9.6,15,15,0,0,1-4.7,2.8A11.7,11.7,0,0,1,1227.4,111.7Z"/><path class="cls-1" d="M1229.8,115c1.8-.4,3.5-.7,5.1-1.1s3.3-.8,4.8-1.3,3.1-1.1,4.6-1.7,3-1.5,4.7-2.2a13.88,13.88,0,0,1-8.4,6.8,20.32,20.32,0,0,1-5.5.8A14.24,14.24,0,0,1,1229.8,115Z"/><path class="cls-1" d="M1230.8,120.1c1.8.2,3.5.4,5.2.5s3.3.2,5,.2a40.28,40.28,0,0,0,4.9-.3c1.7-.2,3.3-.5,5.2-.7a14,14,0,0,1-10.1,3.9,16.16,16.16,0,0,1-5.4-1A10.3,10.3,0,0,1,1230.8,120.1Z"/><path class="cls-1" d="M1233.1,655.2c1.7.8,3.2,1.6,4.7,2.3a59.89,59.89,0,0,0,9.3,3.4c1.6.4,3.3.7,5.1,1.2a14,14,0,0,1-10.8.2,19.42,19.42,0,0,1-4.8-2.8A10.44,10.44,0,0,1,1233.1,655.2Z"/><path class="cls-1" d="M1230.8,659.1c1.3,1.3,2.4,2.6,3.6,3.8s2.4,2.4,3.6,3.4a35.73,35.73,0,0,0,3.8,3c1.3,1,2.8,1.8,4.4,2.9a14.09,14.09,0,0,1-10.2-3.6,16.12,16.12,0,0,1-3.5-4.3A13.29,13.29,0,0,1,1230.8,659.1Z"/><path class="cls-1" d="M1228,661.5c.7,1.7,1.3,3.3,2,4.8l2.1,4.5c.8,1.4,1.6,2.8,2.5,4.2s2,2.7,3.1,4.2a13.73,13.73,0,0,1-8.3-7,15.89,15.89,0,0,1-1.7-5.2A12.64,12.64,0,0,1,1228,661.5Z"/><path class="cls-1" d="M1223.1,663.4c.2,1.8.3,3.5.4,5.2a38.53,38.53,0,0,0,.7,4.9c.3,1.6.7,3.2,1.1,4.8s1.1,3.2,1.6,5a13.94,13.94,0,0,1-5.7-9.2,20.27,20.27,0,0,1-.1-5.5A15.62,15.62,0,0,1,1223.1,663.4Z"/><path class="cls-1" d="M1219.6,663.7c-.5,1.8-1,3.4-1.5,5a42.09,42.09,0,0,0-1.2,4.8c-.3,1.6-.5,3.2-.7,4.8s-.2,3.3-.3,5.2a13.89,13.89,0,0,1-2-10.7,19.32,19.32,0,0,1,2-5.2A13.76,13.76,0,0,1,1219.6,663.7Z"/><path class="cls-1" d="M1215.4,662.1c-1.1,1.5-2.2,2.8-3.2,4.2s-1.9,2.7-2.8,4.1a25.49,25.49,0,0,0-2.3,4.3c-.7,1.5-1.3,3.1-2.1,4.8a14.37,14.37,0,0,1,1.9-10.7,14.53,14.53,0,0,1,3.7-4.1A12.48,12.48,0,0,1,1215.4,662.1Z"/><path class="cls-1" d="M1212.6,659.6c-1.6,1-3,1.8-4.4,2.8s-2.8,1.9-4.1,2.8a37.9,37.9,0,0,0-3.7,3.1c-1.2,1.1-2.3,2.4-3.7,3.7a13.65,13.65,0,0,1,5.6-9.3,17.72,17.72,0,0,1,4.9-2.6A14,14,0,0,1,1212.6,659.6Z"/><path class="cls-1" d="M1210,655.2c-1.8.5-3.4.8-5.1,1.3s-3.2.9-4.7,1.5a43.19,43.19,0,0,0-4.5,1.9c-1.5.7-3,1.6-4.6,2.4a14,14,0,0,1,8.1-7.2,16.64,16.64,0,0,1,5.4-1A12.74,12.74,0,0,1,1210,655.2Z"/><path class="cls-1" d="M1208.8,650.9c-1.8-.2-3.5-.3-5.2-.5a41.8,41.8,0,0,0-5-.2,40.28,40.28,0,0,0-4.9.3c-1.7.2-3.3.5-5.2.7a14,14,0,0,1,10-4,16.11,16.11,0,0,1,5.4.9A11.89,11.89,0,0,1,1208.8,650.9Z"/><path class="cls-1" d="M1209.5,646.4c-1.7-.8-3.2-1.6-4.7-2.3a59.89,59.89,0,0,0-9.3-3.4c-1.6-.4-3.3-.7-5.1-1.1a14,14,0,0,1,10.8-.2,19.42,19.42,0,0,1,4.8,2.8A11.77,11.77,0,0,1,1209.5,646.4Z"/><path class="cls-1" d="M1211.4,643.2c-1.3-1.3-2.4-2.6-3.6-3.8s-2.4-2.4-3.6-3.4a28.83,28.83,0,0,0-3.9-3c-1.3-1-2.8-1.8-4.4-2.9a14.24,14.24,0,0,1,10.2,3.6,16.12,16.12,0,0,1,3.5,4.3A12.44,12.44,0,0,1,1211.4,643.2Z"/><path class="cls-1" d="M1215.2,639.7c-.8-1.7-1.5-3.2-2.3-4.7a43.76,43.76,0,0,0-2.4-4.3,36,36,0,0,0-2.8-4c-1-1.3-2.2-2.6-3.3-4a13.81,13.81,0,0,1,8.6,6.5,18.68,18.68,0,0,1,2,5.1A10,10,0,0,1,1215.2,639.7Z"/><path class="cls-1" d="M1218.4,638.2c-.1-1.8-.2-3.5-.4-5.2s-.3-3.3-.6-4.9a41.5,41.5,0,0,0-1.1-4.8c-.4-1.6-1.1-3.2-1.6-5a13.45,13.45,0,0,1,5.6,9.2,16.92,16.92,0,0,1,0,5.5A11.66,11.66,0,0,1,1218.4,638.2Z"/><path class="cls-1" d="M1222.9,638.2c.5-1.8,1-3.4,1.5-5s.8-3.2,1.2-4.8.5-3.2.7-4.8.1-3.4.3-5.2a13.73,13.73,0,0,1,2,10.6,19.08,19.08,0,0,1-1.9,5.2A18,18,0,0,1,1222.9,638.2Z"/><path class="cls-1" d="M1226.4,639.5c1.1-1.5,2.2-2.8,3.2-4.2s1.9-2.7,2.8-4.1a35.5,35.5,0,0,0,2.3-4.3c.7-1.5,1.3-3.1,2.1-4.8a13.93,13.93,0,0,1-1.9,10.7,15.85,15.85,0,0,1-3.6,4.1A13.66,13.66,0,0,1,1226.4,639.5Z"/><path class="cls-1" d="M1230.4,642.7c1.5-1.1,2.9-2,4.3-3a40.84,40.84,0,0,0,3.9-3.1c1.2-1.1,2.4-2.2,3.5-3.4s2.2-2.5,3.5-3.9a14,14,0,0,1-5,9.6,15,15,0,0,1-4.7,2.8A11.7,11.7,0,0,1,1230.4,642.7Z"/><path class="cls-1" d="M1232.8,646c1.8-.4,3.5-.7,5.1-1.1s3.3-.8,4.8-1.3,3.1-1.1,4.6-1.7,3-1.5,4.7-2.2a13.88,13.88,0,0,1-8.4,6.8,20.32,20.32,0,0,1-5.5.8A14.24,14.24,0,0,1,1232.8,646Z"/><path class="cls-1" d="M1233.8,651.1c1.8.2,3.5.4,5.2.5s3.3.2,5,.2a40.28,40.28,0,0,0,4.9-.3c1.7-.2,3.3-.5,5.2-.7a14,14,0,0,1-10.1,3.9,16.16,16.16,0,0,1-5.4-1A10.3,10.3,0,0,1,1233.8,651.1Z"/><path class="cls-1" d="M1219.5,236.8l1,7.2,6.5,3.2-6.5,3.2-1,7.2-5-5.2-7.1,1.2,3.4-6.4-3.4-6.4,7.1,1.2,5-5.2m2.8-8.6-5.7,5.8-3.6,3.7-5-.9-8-1.4,3.8,7.2,2.4,4.5-2.4,4.5-3.8,7.2,8-1.4,5-.9,3.6,3.7,5.7,5.8,1.2-8,.7-5.1,4.6-2.3,7.3-3.6-7.3-3.6-4.6-2.3-.7-5.1-1.2-7.8Z"/><path class="cls-1" d="M1219.5,768.8l1,7.2,6.5,3.2-6.5,3.2-1,7.2-5-5.2-7.1,1.2,3.4-6.4-3.4-6.4,7.1,1.2,5-5.2m2.8-8.6-5.7,5.8-3.6,3.7-5-.9-8-1.4,3.8,7.2,2.4,4.5-2.4,4.5-3.8,7.2,8-1.4,5-.9,3.6,3.7,5.7,5.8,1.2-8,.7-5.1,4.6-2.3,7.3-3.6-7.3-3.6-4.6-2.3-.7-5.1-1.2-7.8Z"/><path class="cls-1" d="M35.9,380.5a7.8,7.8,0,1,1-7.8,7.8,7.81,7.81,0,0,1,7.8-7.8h0m0-4a11.8,11.8,0,1,0,11.8,11.8h0A11.82,11.82,0,0,0,35.9,376.5Z"/><path class="cls-2" d="M37.5,281.7v87.5s10.2.8,13.2,8.8"/><path class="cls-2" d="M39.7,407.5s-12.2,1.2-15.2-6.8"/><path class="cls-1" d="M25.4,767.8c-1.6-.8-3.2-1.6-4.7-2.3s-3-1.4-4.6-2a36.76,36.76,0,0,0-4.7-1.5c-1.6-.4-3.3-.7-5.1-1.1a14,14,0,0,1,10.8-.2,19.42,19.42,0,0,1,4.8,2.8A13,13,0,0,1,25.4,767.8Z"/><path class="cls-1" d="M27.6,763.9c-1.3-1.3-2.4-2.6-3.6-3.8s-2.4-2.4-3.6-3.4a28.83,28.83,0,0,0-3.9-3c-1.4-1-2.8-1.8-4.4-2.9a14.09,14.09,0,0,1,10.2,3.6,16.12,16.12,0,0,1,3.5,4.3A12.44,12.44,0,0,1,27.6,763.9Z"/><path class="cls-1" d="M30.5,761.6c-.7-1.7-1.3-3.3-2-4.8l-2.1-4.5c-.8-1.4-1.6-2.8-2.5-4.2s-2-2.7-3.1-4.2a13.73,13.73,0,0,1,8.3,7,15.89,15.89,0,0,1,1.7,5.2A14.49,14.49,0,0,1,30.5,761.6Z"/><path class="cls-1" d="M35.3,759.7c-.2-1.8-.3-3.5-.5-5.2s-.4-3.3-.7-4.9-.7-3.2-1.1-4.8-1.1-3.2-1.6-5a13.94,13.94,0,0,1,5.7,9.2,20.27,20.27,0,0,1,.1,5.5A12.12,12.12,0,0,1,35.3,759.7Z"/><path class="cls-1" d="M38.8,759.4c.5-1.8,1-3.4,1.5-5a42.09,42.09,0,0,0,1.2-4.8,39.67,39.67,0,0,0,.7-4.8c.2-1.7.2-3.4.3-5.2a13.73,13.73,0,0,1,2,10.6,19.32,19.32,0,0,1-2,5.2A15.61,15.61,0,0,1,38.8,759.4Z"/><path class="cls-1" d="M43,761c1.1-1.5,2.2-2.8,3.2-4.2s1.9-2.7,2.8-4.1a25.49,25.49,0,0,0,2.3-4.3c.7-1.5,1.3-3.1,2.1-4.8a14.37,14.37,0,0,1-1.9,10.7,15.85,15.85,0,0,1-3.6,4.1A12.88,12.88,0,0,1,43,761Z"/><path class="cls-1" d="M45.8,763.4c1.6-1,3-1.9,4.4-2.8s2.8-1.8,4.1-2.8,2.5-2.1,3.7-3.2,2.3-2.4,3.7-3.7a13.65,13.65,0,0,1-5.6,9.3,17.72,17.72,0,0,1-4.9,2.6A12.36,12.36,0,0,1,45.8,763.4Z"/><path class="cls-1" d="M48.4,767.9c1.8-.5,3.4-.8,5.1-1.3s3.2-.9,4.7-1.5a43.19,43.19,0,0,0,4.5-1.9c1.5-.7,3-1.6,4.6-2.4a14,14,0,0,1-8.1,7.2,16.64,16.64,0,0,1-5.4,1A14.08,14.08,0,0,1,48.4,767.9Z"/><path class="cls-1" d="M49.6,772.2c1.8.2,3.5.3,5.2.5a41.8,41.8,0,0,0,5,.2,40.28,40.28,0,0,0,4.9-.3c1.7-.2,3.3-.5,5.2-.7a14,14,0,0,1-10,4,16.54,16.54,0,0,1-5.4-.9A11.89,11.89,0,0,1,49.6,772.2Z"/><path class="cls-1" d="M48.9,776.6c1.7.8,3.2,1.6,4.7,2.3a37.06,37.06,0,0,0,4.6,1.9,25.42,25.42,0,0,0,4.7,1.4c1.6.4,3.3.7,5.1,1.1a14,14,0,0,1-10.8.2,19.42,19.42,0,0,1-4.8-2.8A10,10,0,0,1,48.9,776.6Z"/><path class="cls-1" d="M47,779.8c1.3,1.3,2.4,2.6,3.6,3.8S53,786,54.2,787a28.83,28.83,0,0,0,3.9,3c1.4,1,2.8,1.8,4.4,2.9a14.09,14.09,0,0,1-10.2-3.6,16.12,16.12,0,0,1-3.5-4.3A12,12,0,0,1,47,779.8Z"/><path class="cls-1" d="M43.2,783.3c.8,1.7,1.5,3.2,2.3,4.7a43.76,43.76,0,0,0,2.4,4.3,36,36,0,0,0,2.8,4c1,1.3,2.2,2.6,3.3,4a13.81,13.81,0,0,1-8.6-6.5,18.68,18.68,0,0,1-2-5.1A9.89,9.89,0,0,1,43.2,783.3Z"/><path class="cls-1" d="M40,784.9c.1,1.8.2,3.5.4,5.2s.3,3.3.6,4.9a41.5,41.5,0,0,0,1.1,4.8c.5,1.6,1.1,3.2,1.6,5a13.8,13.8,0,0,1-5.6-9.3,16.92,16.92,0,0,1,0-5.5A11.72,11.72,0,0,1,40,784.9Z"/><path class="cls-1" d="M35.5,784.9c-.5,1.8-1,3.4-1.5,5a42.09,42.09,0,0,0-1.2,4.8c-.3,1.6-.5,3.2-.7,4.8s-.1,3.4-.3,5.2a13.73,13.73,0,0,1-2-10.6,19.08,19.08,0,0,1,1.9-5.2A18,18,0,0,1,35.5,784.9Z"/><path class="cls-1" d="M32,783.6c-1.1,1.5-2.2,2.8-3.1,4.2s-1.9,2.7-2.8,4.1a35.5,35.5,0,0,0-2.3,4.3c-.7,1.5-1.3,3.1-2.1,4.8a13.93,13.93,0,0,1,1.9-10.7,15.85,15.85,0,0,1,3.6-4.1A11.89,11.89,0,0,1,32,783.6Z"/><path class="cls-1" d="M28,780.4c-1.5,1.1-2.9,2-4.3,3s-2.7,2-3.9,3-2.4,2.2-3.5,3.4-2.2,2.5-3.4,3.9a14,14,0,0,1,5-9.6,15,15,0,0,1,4.7-2.8A12.31,12.31,0,0,1,28,780.4Z"/><path class="cls-1" d="M25.6,777.1c-1.8.4-3.5.7-5.1,1.1s-3.2.8-4.8,1.3-3.1,1.1-4.6,1.7-3,1.5-4.7,2.2a13.88,13.88,0,0,1,8.4-6.8,17,17,0,0,1,5.5-.7A11.11,11.11,0,0,1,25.6,777.1Z"/><path class="cls-1" d="M24.6,772c-1.8-.2-3.5-.4-5.2-.5l-5-.3a40.28,40.28,0,0,0-4.9.3c-1.7.2-3.3.5-5.2.7a14,14,0,0,1,10.1-4,14.36,14.36,0,0,1,5.4,1A11.09,11.09,0,0,1,24.6,772Z"/><path class="cls-1" d="M22.4,236.8c-1.6-.8-3.2-1.6-4.7-2.3s-3-1.4-4.6-2a36.44,36.44,0,0,0-4.7-1.4c-1.6-.4-3.3-.7-5.1-1.1a14,14,0,0,1,10.8-.2,19.42,19.42,0,0,1,4.8,2.8A11.77,11.77,0,0,1,22.4,236.8Z"/><path class="cls-1" d="M24.6,232.9c-1.3-1.4-2.4-2.6-3.6-3.8s-2.4-2.4-3.6-3.4a28.83,28.83,0,0,0-3.9-3c-1.4-1-2.8-1.8-4.4-2.9a14.09,14.09,0,0,1,10.2,3.6,16.12,16.12,0,0,1,3.5,4.3A12.44,12.44,0,0,1,24.6,232.9Z"/><path class="cls-1" d="M27.5,230.6c-.7-1.7-1.3-3.3-2-4.8l-2.1-4.5c-.8-1.4-1.6-2.8-2.5-4.2s-2-2.7-3.1-4.2a13.73,13.73,0,0,1,8.3,7,15.89,15.89,0,0,1,1.7,5.2A14.49,14.49,0,0,1,27.5,230.6Z"/><path class="cls-1" d="M32.3,228.7c-.1-1.8-.3-3.5-.5-5.2s-.4-3.3-.7-4.9-.7-3.2-1.1-4.8-1.1-3.2-1.6-4.9a13.94,13.94,0,0,1,5.7,9.2,20.27,20.27,0,0,1,.1,5.5A13.12,13.12,0,0,1,32.3,228.7Z"/><path class="cls-1" d="M35.8,228.4c.5-1.8,1-3.4,1.5-5a42.09,42.09,0,0,0,1.2-4.8,39.67,39.67,0,0,0,.7-4.8c.2-1.7.2-3.4.3-5.2a13.73,13.73,0,0,1,2,10.6,17.5,17.5,0,0,1-2,5.1A14.53,14.53,0,0,1,35.8,228.4Z"/><path class="cls-1" d="M40,230c1.1-1.5,2.2-2.8,3.2-4.2s1.9-2.7,2.8-4.1a25.49,25.49,0,0,0,2.3-4.3c.7-1.5,1.3-3.1,2.1-4.8a14,14,0,0,1-1.9,10.6,15.85,15.85,0,0,1-3.6,4.1A11.84,11.84,0,0,1,40,230Z"/><path class="cls-1" d="M42.8,232.4c1.6-1,3-1.9,4.4-2.8s2.8-1.9,4.1-2.8,2.5-2.1,3.7-3.2,2.3-2.4,3.7-3.7a13.65,13.65,0,0,1-5.6,9.3,17.72,17.72,0,0,1-4.9,2.6A12.36,12.36,0,0,1,42.8,232.4Z"/><path class="cls-1" d="M45.4,236.9c1.8-.4,3.4-.9,5.1-1.3a32.31,32.31,0,0,0,4.7-1.5,43.19,43.19,0,0,0,4.5-1.9c1.5-.7,3-1.6,4.6-2.4a13.53,13.53,0,0,1-8.1,7.1,16.64,16.64,0,0,1-5.4,1A12.37,12.37,0,0,1,45.4,236.9Z"/><path class="cls-1" d="M46.6,241.2c1.8.2,3.5.3,5.2.5a41.8,41.8,0,0,0,5,.2,40.28,40.28,0,0,0,4.9-.3c1.7-.2,3.3-.5,5.2-.7a14,14,0,0,1-10,4,16.54,16.54,0,0,1-5.4-.9A11.89,11.89,0,0,1,46.6,241.2Z"/><path class="cls-1" d="M45.9,245.6c1.7.8,3.2,1.6,4.7,2.3a37.06,37.06,0,0,0,4.6,1.9,25.42,25.42,0,0,0,4.7,1.4c1.6.4,3.3.7,5.1,1.1a14,14,0,0,1-10.8.2,19.42,19.42,0,0,1-4.8-2.8A10,10,0,0,1,45.9,245.6Z"/><path class="cls-1" d="M44,248.8c1.3,1.3,2.4,2.6,3.6,3.8S50,255,51.2,256a28.83,28.83,0,0,0,3.9,3c1.4,1,2.8,1.8,4.4,2.9a14.09,14.09,0,0,1-10.2-3.6,16.12,16.12,0,0,1-3.5-4.3A12,12,0,0,1,44,248.8Z"/><path class="cls-1" d="M40.2,252.3c.8,1.7,1.5,3.2,2.3,4.7a43.76,43.76,0,0,0,2.4,4.3,36,36,0,0,0,2.8,4c1,1.3,2.2,2.6,3.3,4a13.81,13.81,0,0,1-8.6-6.5,18.68,18.68,0,0,1-2-5.1A9.89,9.89,0,0,1,40.2,252.3Z"/><path class="cls-1" d="M37,253.9c.1,1.8.2,3.5.4,5.2s.3,3.3.6,4.9a41.5,41.5,0,0,0,1.1,4.8c.5,1.6,1.1,3.2,1.6,5a13.8,13.8,0,0,1-5.6-9.3,16.92,16.92,0,0,1,0-5.5A11.72,11.72,0,0,1,37,253.9Z"/><path class="cls-1" d="M32.5,253.9c-.5,1.8-1,3.4-1.5,5a42.09,42.09,0,0,0-1.2,4.8c-.3,1.6-.5,3.2-.7,4.8s-.1,3.4-.3,5.2a13.73,13.73,0,0,1-2-10.6,19.08,19.08,0,0,1,1.9-5.2A18,18,0,0,1,32.5,253.9Z"/><path class="cls-1" d="M29,252.6c-1.1,1.5-2.2,2.8-3.1,4.2s-1.9,2.7-2.8,4.1a35.5,35.5,0,0,0-2.3,4.3c-.7,1.5-1.3,3.1-2.1,4.8a13.61,13.61,0,0,1,1.9-10.6,15.85,15.85,0,0,1,3.6-4.1A11,11,0,0,1,29,252.6Z"/><path class="cls-1" d="M25,249.4c-1.5,1.1-2.9,2-4.3,3s-2.7,2-3.9,3-2.4,2.2-3.5,3.4-2.2,2.5-3.4,3.9a14,14,0,0,1,5-9.6,15,15,0,0,1,4.7-2.8A12.31,12.31,0,0,1,25,249.4Z"/><path class="cls-1" d="M22.6,246.1c-1.8.4-3.5.7-5.1,1.1s-3.2.8-4.8,1.3-3.1,1.1-4.6,1.7-3,1.5-4.7,2.2a13.88,13.88,0,0,1,8.4-6.8,17,17,0,0,1,5.5-.7A11.11,11.11,0,0,1,22.6,246.1Z"/><path class="cls-1" d="M21.6,241c-1.8-.2-3.5-.4-5.2-.5l-4.9-.3a40.28,40.28,0,0,0-4.9.3c-1.7.2-3.3.5-5.2.7a13.55,13.55,0,0,1,10.1-3.9,16.54,16.54,0,0,1,5.4.9A11.8,11.8,0,0,1,21.6,241Z"/><path class="cls-1" d="M35.9,634.5l5,5.2,7.1-1.2-3.4,6.4,3.4,6.4-7.1-1.2-5,5.2-1-7.2-6.5-3.2,6.5-3.2,1-7.2m-2.8-8.6-1.2,8-.7,5.1-4.6,2.3-7.2,3.6,7.3,3.6,4.6,2.3.7,5.1,1.2,8,5.7-5.8,3.5-3.7,5.1.9,8,1.4-3.8-7.2L49.3,645l2.4-4.5,3.7-7.2-8,1.4-5,.8-3.6-3.7-5.7-5.9Z"/><path class="cls-1" d="M35.9,88.5l5,5.2L48,92.5l-3.4,6.4,3.4,6.4-7.1-1.2-5,5.2-1-7.2-6.5-3.2,6.5-3.2,1-7.2m-2.8-8.6-1.2,8L31.2,93l-4.6,2.3-7.2,3.6,7.3,3.6,4.6,2.3.7,5.1,1.2,8,5.7-5.8,3.5-3.7,5.1.9,8,1.4-3.8-7.2L49.3,99l2.4-4.5,3.7-7.2-8,1.4-5,.7-3.6-3.7-5.7-5.8Z"/><line class="cls-2" x1="158.5" y1="825.2" x2="262.5" y2="825.2"/><line class="cls-2" x1="294.5" y1="826.6" x2="392.5" y2="826.6"/><line class="cls-2" x1="439.5" y1="824.7" x2="520.5" y2="824.7"/><line class="cls-2" x1="864.5" y1="824.7" x2="939.5" y2="824.7"/><line class="cls-2" x1="985.5" y1="824.7" x2="1054.5" y2="824.7"/><line class="cls-2" x1="1219" y1="754.2" x2="1219" y2="691.2"/><line class="cls-2" x1="1219" y1="478.2" x2="1219" y2="392.2"/><line class="cls-2" x1="1219" y1="344.2" x2="1219" y2="272.2"/><line class="cls-2" x1="1219" y1="225.2" x2="1219" y2="156.2"/><path class="cls-2" d="M1126.9,824.7h77.9a14.83,14.83,0,0,0,14.8-14.8h0v-6.3"/><line class="cls-2" x1="40.4" y1="117.7" x2="40.4" y2="200.7"/><line class="cls-2" x1="39.4" y1="406.2" x2="39.4" y2="512.7"/><line class="cls-2" x1="40.4" y1="537.2" x2="40.4" y2="622.2"/><line class="cls-2" x1="39.4" y1="668.2" x2="39.4" y2="735.7"/><line class="cls-2" x1="931.5" y1="37.2" x2="845.5" y2="37.2"/><line class="cls-2" x1="801.5" y1="37.2" x2="720.5" y2="37.2"/><line class="cls-2" x1="377.5" y1="37.2" x2="298.5" y2="37.2"/><line class="cls-2" x1="257.5" y1="37.2" x2="187.5" y2="37.2"/><path class="cls-2" d="M115.2,37.2H54.8A14.3,14.3,0,0,0,40.5,51.5V80.3"/></g></g></g></g></svg>