<svg xmlns="http://www.w3.org/2000/svg" viewBox="0 0 1149.3 71.29"><defs><style>.cls-1{fill:#fff;}.cls-1,.cls-2{stroke:#fff;stroke-miterlimit:10;}.cls-2{fill:none;stroke-width:3px;}</style></defs><title>Asset 55</title><g id="Layer_2" data-name="Layer 2"><g id="Layer_1-2" data-name="Layer 1"><path class="cls-1" d="M480,28.2a7.8,7.8,0,1,1-7.8,7.8,7.81,7.81,0,0,1,7.8-7.8m0-4A11.8,11.8,0,1,0,491.8,36,11.82,11.82,0,0,0,480,24.2Z"/><path class="cls-2" d="M587.1,37.5h-88s-.8,10.2-8.8,13.2"/><path class="cls-2" d="M340.7,37.7h120s-1.1-12.2,6.9-15.2"/><path class="cls-1" d="M1045,28.2a7.8,7.8,0,1,1-7.8,7.8,7.81,7.81,0,0,1,7.8-7.8m0-4A11.8,11.8,0,1,0,1056.8,36,11.82,11.82,0,0,0,1045,24.2Z"/><path class="cls-2" d="M1055.2,50.7c8-3,8.8-13.2,8.8-13.2h85.3"/><path class="cls-2" d="M905.7,37.7h120s-1.1-12.2,6.9-15.2"/><path class="cls-1" d="M100.4,25.4c.8-1.6,1.6-3.2,2.3-4.7a37.06,37.06,0,0,0,1.9-4.6,36.76,36.76,0,0,0,1.5-4.7c.4-1.6.7-3.3,1.1-5.1a14,14,0,0,1,.2,10.8,19.42,19.42,0,0,1-2.8,4.8A10.29,10.29,0,0,1,100.4,25.4Z"/><path class="cls-1" d="M104.3,27.6c1.4-1.3,2.6-2.4,3.8-3.6s2.4-2.4,3.5-3.6a28.83,28.83,0,0,0,3-3.9c1-1.4,1.8-2.8,2.9-4.4a13.76,13.76,0,0,1-3.7,10.2,16.12,16.12,0,0,1-4.3,3.5A12,12,0,0,1,104.3,27.6Z"/><path class="cls-1" d="M106.7,30.5c1.7-.7,3.3-1.3,4.8-2s3.1-1.4,4.5-2.1,2.8-1.6,4.2-2.5,2.7-2,4.2-3.1a13.73,13.73,0,0,1-7,8.3,15.89,15.89,0,0,1-5.2,1.7A14.37,14.37,0,0,1,106.7,30.5Z"/><path class="cls-1" d="M108.6,35.3c1.8-.2,3.5-.3,5.2-.5s3.3-.4,4.9-.7,3.2-.7,4.8-1.1,3.2-1.1,5-1.6a13.94,13.94,0,0,1-9.2,5.7,20.27,20.27,0,0,1-5.5.1A12.12,12.12,0,0,1,108.6,35.3Z"/><path class="cls-1" d="M108.9,38.8c1.8.5,3.4,1,5,1.5a42.09,42.09,0,0,0,4.8,1.2,38.53,38.53,0,0,0,4.9.7c1.6.2,3.4.2,5.2.3a13.73,13.73,0,0,1-10.6,2,17.5,17.5,0,0,1-5.1-2A11.71,11.71,0,0,1,108.9,38.8Z"/><path class="cls-1" d="M107.3,43c1.5,1.1,2.8,2.2,4.2,3.2s2.7,1.9,4.1,2.8a35.5,35.5,0,0,0,4.3,2.3c1.5.7,3.1,1.3,4.8,2.1a14,14,0,0,1-10.6-1.9,15.85,15.85,0,0,1-4.1-3.6A12.5,12.5,0,0,1,107.3,43Z"/><path class="cls-1" d="M104.8,45.8c1,1.6,1.9,3,2.8,4.4s1.9,2.8,2.8,4.1,2,2.5,3.1,3.7,2.4,2.3,3.7,3.7a13.65,13.65,0,0,1-9.3-5.6,17.72,17.72,0,0,1-2.6-4.9A14,14,0,0,1,104.8,45.8Z"/><path class="cls-1" d="M100.4,48.4c.4,1.8.9,3.4,1.3,5.1a32.31,32.31,0,0,0,1.5,4.7,43.19,43.19,0,0,0,1.9,4.5c.7,1.5,1.6,3,2.4,4.6a14,14,0,0,1-7.2-8.1,16.64,16.64,0,0,1-1-5.4A12.44,12.44,0,0,1,100.4,48.4Z"/><path class="cls-1" d="M96.1,49.6c-.2,1.8-.3,3.5-.5,5.2a41.8,41.8,0,0,0-.2,5,40.28,40.28,0,0,0,.3,4.9c.2,1.7.5,3.3.7,5.2a14,14,0,0,1-4-10,16.11,16.11,0,0,1,.9-5.4A11.89,11.89,0,0,1,96.1,49.6Z"/><path class="cls-1" d="M91.7,48.9c-.8,1.7-1.6,3.2-2.3,4.7a37.06,37.06,0,0,0-1.9,4.6,25.42,25.42,0,0,0-1.4,4.7c-.4,1.6-.7,3.3-1.1,5.1a13.53,13.53,0,0,1-.3-10.8,19.42,19.42,0,0,1,2.8-4.8A10.29,10.29,0,0,1,91.7,48.9Z"/><path class="cls-1" d="M88.4,47c-1.4,1.3-2.6,2.4-3.8,3.6s-2.4,2.4-3.4,3.6a28.83,28.83,0,0,0-3,3.9c-1,1.4-1.8,2.8-2.9,4.4a14.09,14.09,0,0,1,3.6-10.2,16.12,16.12,0,0,1,4.3-3.5A12.44,12.44,0,0,1,88.4,47Z"/><path class="cls-1" d="M85,43.2c-1.7.8-3.2,1.5-4.7,2.3s-3,1.5-4.4,2.4a36,36,0,0,0-4,2.8c-1.3,1-2.6,2.2-4.1,3.3a13.81,13.81,0,0,1,6.5-8.6,18.68,18.68,0,0,1,5.1-2A10.66,10.66,0,0,1,85,43.2Z"/><path class="cls-1" d="M83.4,40c-1.8.1-3.5.2-5.2.4s-3.3.3-4.9.6a41.5,41.5,0,0,0-4.8,1.1c-1.6.5-3.2,1.1-5,1.6a13.81,13.81,0,0,1,9.2-5.6,16.92,16.92,0,0,1,5.5,0A11.66,11.66,0,0,1,83.4,40Z"/><path class="cls-1" d="M83.4,35.5c-1.8-.5-3.4-1-5-1.5a42.09,42.09,0,0,0-4.8-1.2c-1.6-.3-3.2-.5-4.8-.7s-3.4-.1-5.2-.3a13.73,13.73,0,0,1,10.6-2,19.08,19.08,0,0,1,5.2,1.9A18,18,0,0,1,83.4,35.5Z"/><path class="cls-1" d="M84.7,32c-1.5-1.1-2.8-2.2-4.2-3.1s-2.7-1.9-4.1-2.8a35.5,35.5,0,0,0-4.3-2.3c-1.5-.7-3.1-1.3-4.8-2.1A13.93,13.93,0,0,1,78,23.6a15.85,15.85,0,0,1,4.1,3.6A13.24,13.24,0,0,1,84.7,32Z"/><path class="cls-1" d="M87.9,28c-1.1-1.5-2-2.9-3-4.3a40.84,40.84,0,0,0-3.1-3.9c-1.1-1.2-2.2-2.4-3.4-3.5s-2.6-2.2-3.9-3.4a14,14,0,0,1,9.6,5,17.22,17.22,0,0,1,2.8,4.7A10.87,10.87,0,0,1,87.9,28Z"/><path class="cls-1" d="M91.2,25.6c-.4-1.8-.7-3.5-1.1-5.1s-.8-3.2-1.3-4.8-1.1-3.1-1.7-4.6-1.5-3-2.2-4.7a13.88,13.88,0,0,1,6.8,8.4,20.32,20.32,0,0,1,.8,5.5A14.24,14.24,0,0,1,91.2,25.6Z"/><path class="cls-1" d="M96.3,24.6c.2-1.8.4-3.5.5-5.2s.2-3.3.2-5a40.28,40.28,0,0,0-.3-4.9c-.2-1.7-.5-3.3-.7-5.2a14,14,0,0,1,3.9,10.1,16.54,16.54,0,0,1-.9,5.4A10.9,10.9,0,0,1,96.3,24.6Z"/><path class="cls-1" d="M631.4,22.4c.8-1.6,1.6-3.2,2.3-4.7a37.06,37.06,0,0,0,1.9-4.6,36.76,36.76,0,0,0,1.5-4.7c.4-1.6.7-3.3,1.2-5.1a14,14,0,0,1,.2,10.8,19.42,19.42,0,0,1-2.8,4.8A11.29,11.29,0,0,1,631.4,22.4Z"/><path class="cls-1" d="M635.3,24.6c1.3-1.3,2.6-2.4,3.8-3.6s2.4-2.4,3.5-3.6a28.83,28.83,0,0,0,3-3.9c1-1.4,1.8-2.8,2.9-4.4a13.76,13.76,0,0,1-3.7,10.2,16.12,16.12,0,0,1-4.3,3.5A12,12,0,0,1,635.3,24.6Z"/><path class="cls-1" d="M637.7,27.5c1.7-.7,3.3-1.3,4.8-2l4.5-2.1c1.4-.8,2.8-1.6,4.2-2.5s2.7-2,4.2-3.1a13.73,13.73,0,0,1-7,8.3,15.89,15.89,0,0,1-5.2,1.7A14.37,14.37,0,0,1,637.7,27.5Z"/><path class="cls-1" d="M639.6,32.3c1.8-.1,3.5-.3,5.2-.5s3.3-.4,4.9-.7,3.2-.7,4.8-1.1,3.2-1.1,5-1.6a13.94,13.94,0,0,1-9.2,5.7,20.27,20.27,0,0,1-5.5.1A12.12,12.12,0,0,1,639.6,32.3Z"/><path class="cls-1" d="M639.9,35.8c1.8.5,3.4,1,5,1.5a42.09,42.09,0,0,0,4.8,1.2,39.67,39.67,0,0,0,4.8.7c1.7.2,3.3.2,5.2.3a13.89,13.89,0,0,1-10.7,2,19.32,19.32,0,0,1-5.2-2A13.76,13.76,0,0,1,639.9,35.8Z"/><path class="cls-1" d="M638.3,40c1.5,1.1,2.8,2.2,4.2,3.2s2.7,1.9,4.1,2.8a35.5,35.5,0,0,0,4.3,2.3c1.5.7,3.1,1.3,4.8,2.1A14.37,14.37,0,0,1,645,48.5a15.85,15.85,0,0,1-4.1-3.6A13.66,13.66,0,0,1,638.3,40Z"/><path class="cls-1" d="M635.8,42.8c1,1.6,1.8,3,2.8,4.4s1.9,2.8,2.8,4.1,2,2.5,3.1,3.7,2.4,2.3,3.7,3.7a13.65,13.65,0,0,1-9.3-5.6,17.72,17.72,0,0,1-2.6-4.9A14,14,0,0,1,635.8,42.8Z"/><path class="cls-1" d="M631.4,45.4c.5,1.8.8,3.4,1.3,5.1s.9,3.2,1.5,4.7a43.19,43.19,0,0,0,1.9,4.5c.7,1.5,1.6,3,2.4,4.6a14,14,0,0,1-7.2-8.1,16.64,16.64,0,0,1-1-5.4A12.44,12.44,0,0,1,631.4,45.4Z"/><path class="cls-1" d="M627.1,46.6c-.2,1.8-.3,3.5-.5,5.2a41.8,41.8,0,0,0-.2,5,40.28,40.28,0,0,0,.3,4.9c.2,1.7.5,3.3.7,5.2a14,14,0,0,1-4-10,16.11,16.11,0,0,1,.9-5.4A11.89,11.89,0,0,1,627.1,46.6Z"/><path class="cls-1" d="M622.6,45.9c-.8,1.7-1.6,3.2-2.3,4.7a37.06,37.06,0,0,0-1.9,4.6,36.76,36.76,0,0,0-1.5,4.7c-.4,1.6-.7,3.3-1.1,5.1a13.53,13.53,0,0,1-.3-10.8,19.42,19.42,0,0,1,2.8-4.8A13,13,0,0,1,622.6,45.9Z"/><path class="cls-1" d="M619.4,44c-1.3,1.3-2.6,2.4-3.8,3.6s-2.4,2.4-3.4,3.6a28.83,28.83,0,0,0-3,3.9c-1,1.4-1.8,2.8-2.9,4.4a14.09,14.09,0,0,1,3.6-10.2,16.12,16.12,0,0,1,4.3-3.5A12.44,12.44,0,0,1,619.4,44Z"/><path class="cls-1" d="M615.9,40.2c-1.7.8-3.2,1.5-4.7,2.3a43.76,43.76,0,0,0-4.3,2.4,36,36,0,0,0-4,2.8c-1.3,1-2.6,2.2-4,3.3a13.81,13.81,0,0,1,6.5-8.6,18.68,18.68,0,0,1,5.1-2A10,10,0,0,1,615.9,40.2Z"/><path class="cls-1" d="M614.4,37c-1.8.1-3.5.2-5.2.4s-3.3.3-4.9.6a41.5,41.5,0,0,0-4.8,1.1c-1.6.5-3.2,1.1-5,1.6a13.81,13.81,0,0,1,9.2-5.6,16.92,16.92,0,0,1,5.5,0A11.66,11.66,0,0,1,614.4,37Z"/><path class="cls-1" d="M614.4,32.5c-1.8-.5-3.4-1-5-1.5a42.09,42.09,0,0,0-4.8-1.2c-1.6-.3-3.2-.5-4.8-.7s-3.4-.1-5.2-.3a13.73,13.73,0,0,1,10.6-2,19.08,19.08,0,0,1,5.2,1.9A18,18,0,0,1,614.4,32.5Z"/><path class="cls-1" d="M615.7,29c-1.5-1.1-2.8-2.2-4.2-3.1s-2.7-1.9-4.1-2.8a35.5,35.5,0,0,0-4.3-2.3c-1.5-.7-3.1-1.3-4.8-2.1A13.93,13.93,0,0,1,609,20.6a15.85,15.85,0,0,1,4.1,3.6A13.24,13.24,0,0,1,615.7,29Z"/><path class="cls-1" d="M618.9,25c-1.1-1.5-2-2.9-3-4.3a40.84,40.84,0,0,0-3.1-3.9c-1.1-1.2-2.2-2.4-3.4-3.5s-2.5-2.2-3.9-3.4a14,14,0,0,1,9.6,5,17.22,17.22,0,0,1,2.8,4.7A10.87,10.87,0,0,1,618.9,25Z"/><path class="cls-1" d="M622.2,22.6c-.4-1.8-.7-3.5-1.1-5.1s-.8-3.2-1.3-4.8-1.1-3.1-1.7-4.6-1.5-3-2.2-4.7a13.88,13.88,0,0,1,6.8,8.4,20.32,20.32,0,0,1,.8,5.5A14.24,14.24,0,0,1,622.2,22.6Z"/><path class="cls-1" d="M627.3,21.6c.2-1.8.4-3.5.5-5.2s.2-3.3.2-4.9a40.28,40.28,0,0,0-.3-4.9c-.2-1.7-.5-3.3-.7-5.2a14,14,0,0,1,3.9,10.1,16.16,16.16,0,0,1-1,5.4A10.38,10.38,0,0,1,627.3,21.6Z"/><path class="cls-1" d="M223.4,28.4l3.2,6.5,7.2,1L228.7,41l1.2,7.1-6.4-3.4-6.4,3.4,1.2-7.1-5.2-5,7.2-1,3.1-6.6m0-8.9-3.6,7.3-2.3,4.6-5.1.7-8,1.2,5.8,5.7,3.6,3.5-.9,5.1-1.4,8,7.2-3.8,4.5-2.4,4.5,2.4,7.2,3.7-1.4-8-.9-5,3.7-3.6,5.8-5.7-8-1.2-5.1-.7-2.3-4.6-3.3-7.2Z"/><path class="cls-1" d="M769.4,28.4l3.2,6.5,7.2,1L774.7,41l1.2,7.1-6.4-3.4-6.4,3.4,1.2-7.1-5.2-5,7.2-1,3.1-6.6m0-8.9-3.6,7.3-2.3,4.6-5.1.7-8,1.2,5.8,5.7,3.6,3.5-.9,5.1-1.4,8,7.2-3.8,4.5-2.4,4.5,2.4,7.2,3.7-1.4-8-.9-5,3.7-3.6,5.8-5.7-8-1.2-5.1-.7-2.3-4.6-3.3-7.2Z"/><path class="cls-1" d="M333.1,50.1a21.55,21.55,0,0,1-21.5-21.6A21.23,21.23,0,0,1,313,21a2,2,0,0,1,1.8-1.2,1.83,1.83,0,0,1,1.8,1.3,17.37,17.37,0,0,0,16.6,12.3,18.56,18.56,0,0,0,17.6-12.8,1.83,1.83,0,0,1,1.7-1.3,1.54,1.54,0,0,1,1.5,1,20.37,20.37,0,0,1,1.6,7.3C356,38.3,348,47.9,337,49.7c-1.4.2-2.7.3-3.9.4Z"/><path class="cls-1" d="M352.3,19.7a1.3,1.3,0,0,1,1.2.8,22.15,22.15,0,0,1,1.6,7.2c.4,10.8-7.7,19.9-18.3,21.7a22.18,22.18,0,0,1-3.7.3,21.21,21.21,0,0,1-21.2-21.2,23.52,23.52,0,0,1,1.3-7.4,1.48,1.48,0,0,1,1.9-.9,1.5,1.5,0,0,1,.9,1,17.58,17.58,0,0,0,17,12.5,18.79,18.79,0,0,0,17.9-13.1,1.69,1.69,0,0,1,1.4-.9m0-.7a2.13,2.13,0,0,0-2,1.5,18.26,18.26,0,0,1-17.2,12.6,16.74,16.74,0,0,1-16.2-12,2.27,2.27,0,0,0-4.3-.1,22,22,0,0,0,20.5,29.6,24.33,24.33,0,0,0,3.8-.3c11.3-1.9,19.4-11.5,19-22.5a20.43,20.43,0,0,0-1.6-7.4,2.13,2.13,0,0,0-2-1.4Z"/><path class="cls-1" d="M890.1,50.1a21.55,21.55,0,0,1-21.5-21.6A21.23,21.23,0,0,1,870,21a2,2,0,0,1,1.8-1.2,1.83,1.83,0,0,1,1.8,1.3,17.37,17.37,0,0,0,16.6,12.3,18.56,18.56,0,0,0,17.6-12.8,1.83,1.83,0,0,1,1.7-1.3,1.54,1.54,0,0,1,1.5,1,20.37,20.37,0,0,1,1.6,7.3C913,38.3,905,47.9,894,49.7c-1.4.2-2.7.3-3.9.4Z"/><path class="cls-1" d="M909.3,19.7a1.3,1.3,0,0,1,1.2.8,22.15,22.15,0,0,1,1.6,7.2c.4,10.8-7.7,19.9-18.3,21.7a22.18,22.18,0,0,1-3.7.3,21.21,21.21,0,0,1-21.2-21.2,23.52,23.52,0,0,1,1.3-7.4,1.48,1.48,0,0,1,1.9-.9,1.5,1.5,0,0,1,.9,1,17.58,17.58,0,0,0,17,12.5,18.79,18.79,0,0,0,17.9-13.1,1.69,1.69,0,0,1,1.4-.9m0-.7a2.13,2.13,0,0,0-2,1.5,18.26,18.26,0,0,1-17.2,12.6,16.74,16.74,0,0,1-16.2-12,2.27,2.27,0,0,0-4.3-.1,22,22,0,0,0,20.5,29.6,24.33,24.33,0,0,0,3.8-.3c11.3-1.9,19.4-11.5,19-22.5a20.43,20.43,0,0,0-1.6-7.4,2,2,0,0,0-2-1.4Z"/><line class="cls-2" x1="876.7" y1="37.2" x2="790.7" y2="37.2"/><line class="cls-2" x1="746.7" y1="37.2" x2="665.7" y2="37.2"/><line class="cls-2" x1="322.7" y1="37.2" x2="243.7" y2="37.2"/><line class="cls-2" x1="202.7" y1="37.2" x2="132.7" y2="37.2"/><path class="cls-2" d="M60.4,37.2H0"/></g></g></svg>