<svg xmlns="http://www.w3.org/2000/svg" viewBox="0 0 66.54 66.54"><defs><style>.cls-1{fill:#fff;}.cls-2{fill:none;stroke:#fff;stroke-miterlimit:10;stroke-width:2px;}</style></defs><title>Asset 39</title><g id="Layer_2" data-name="Layer 2"><g id="Layer_5" data-name="Layer 5"><path class="cls-1" d="M38.09,55.08a1.91,1.91,0,0,1-.75-1.76,57,57,0,0,0-.68-6.94L36.39,45l-6.73-1c-.27,1-.66,3.15-1.16,6.33-.27,2.22-.7,3.69-1.29,4.42a1.64,1.64,0,0,1-1.36.61,2.47,2.47,0,0,1-1.5-.51,1.52,1.52,0,0,1-.67-1.26l.13-.34.07-.27a302.35,302.35,0,0,0,6.8-34.48,9,9,0,0,1,.07-.92c0-.43.09-1.05.13-1.87.14-1.67.29-3,.44-4a5.2,5.2,0,0,1,.79-2.24h2.31a3,3,0,0,1,1.63.44,1.42,1.42,0,0,1,.68,1.26,121.79,121.79,0,0,0,1.43,15.37,135.18,135.18,0,0,1,1.36,14.68,15,15,0,0,0,.34,2.11,12.36,12.36,0,0,1,.34,2c0,.32.23,1.68.68,4.08a30.18,30.18,0,0,1,.61,4.22v.07a1.79,1.79,0,0,1-1.09,1.9A4.37,4.37,0,0,1,38.09,55.08ZM35.71,40a142,142,0,0,0-1.09-15.64l-.68-7.07q-2.92,16-4,24.14,1,.67,6,1.08A13.55,13.55,0,0,1,35.71,40Z"/><circle class="cls-2" cx="33.27" cy="33.27" r="32.27"/></g></g></svg>