<svg xmlns="http://www.w3.org/2000/svg" viewBox="0 0 853.01 726"><defs><style>.cls-1,.cls-2{fill:none;stroke:#fff;stroke-width:2px;}.cls-1{stroke-miterlimit:10;}.cls-2{stroke-linecap:round;stroke-linejoin:round;}</style></defs><title>Asset 22</title><g id="Layer_2" data-name="Layer 2"><g id="Layer_5" data-name="Layer 5"><path class="cls-1" d="M424,180l-103,1s-19-5-24-7-31,0-63,10-62,28-71,43S102,376,86,463s0,136,19,151,19,19,44,24c0,0,15,3,65-64s71-70,71-70,51-2,139-2"/><path class="cls-1" d="M423.46,180l103,1s19-5,24-7,31,0,63,10,62,28,71,43,61,149,77,236,0,136-19,151-19,19-44,24c0,0-15,3-65-64s-71-70-71-70-51-2-139-2"/><path class="cls-2" d="M346.43,349.4c-4.79-.22-17.12-.64-29.85,0a2.19,2.19,0,0,0-2.07,2.19v29.73a2.19,2.19,0,0,1-2.19,2.19H282.7a2.19,2.19,0,0,0-2.19,2.19v29.62a2.19,2.19,0,0,0,2.19,2.19h30.62a2.19,2.19,0,0,1,2.19,2.19v29.62a2.19,2.19,0,0,0,2.19,2.19h28.62a2.19,2.19,0,0,0,2.19-2.19V419.69a2.19,2.19,0,0,1,2.19-2.19h27.62a2.19,2.19,0,0,0,2.19-2.19V385.69a2.19,2.19,0,0,0-2.19-2.19H350.7a2.19,2.19,0,0,1-2.19-2.19V351.58A2.17,2.17,0,0,0,346.43,349.4Z"/><path class="cls-2" d="M182.51,207.5s4-12,8-17,18-15,45-25,54-12,54-12,9-2,17,3,18,10,18,10h195"/><path class="cls-2" d="M665.51,207.5s-4-12-8-17-18-15-45-25-54-12-54-12-9-2-17,3-18,10-18,10h-195"/><line class="cls-2" x1="324.51" y1="166.5" x2="324.51" y2="180.5"/><line class="cls-2" x1="525.51" y1="166.5" x2="525.51" y2="180.5"/><path class="cls-1" d="M148.51,637.5s37-57,119-133c0,0,10-9,34-10s123-1,123-1"/><path class="cls-1" d="M700.51,637.5s-37-57-119-133c0,0-10-9-34-10s-123-1-123-1"/><circle class="cls-1" cx="244.51" cy="286.5" r="27"/><circle class="cls-1" cx="244.51" cy="286.5" r="44"/><circle class="cls-1" cx="516.51" cy="392.5" r="27"/><circle class="cls-1" cx="604.92" cy="333.77" r="23.77"/><circle class="cls-1" cx="604.92" cy="333.77" r="23.77"/><circle class="cls-1" cx="556.92" cy="286.77" r="23.77"/><circle class="cls-1" cx="605.92" cy="239.77" r="23.77"/><circle class="cls-1" cx="651.92" cy="288.77" r="23.77"/><circle class="cls-1" cx="372.92" cy="285.77" r="15.73"/><circle class="cls-1" cx="516.51" cy="392.5" r="44"/><line class="cls-1" x1="548.51" y1="274.5" x2="565.51" y2="299.5"/><line class="cls-1" x1="565.51" y1="274.5" x2="548.51" y2="299.5"/><polyline class="cls-1" points="593.51 346.5 603.51 320.5 606.51 320.5 615.51 346.5"/><line class="cls-1" x1="597.51" y1="337.5" x2="611.51" y2="337.5"/><polyline class="cls-1" points="596.51 227.5 605.51 241.5 614.51 227.5"/><line class="cls-1" x1="605.51" y1="255.5" x2="605.51" y2="240.5"/><path class="cls-1" d="M647,276v25h11s4-1,4-6c0-3-1.5-6.5-4.5-6.5"/><path class="cls-1" d="M647,301V276h11s4,1,4,6c0,3-1.5,6.5-4.5,6.5"/><line class="cls-1" x1="647.51" y1="288.5" x2="657.51" y2="288.5"/><circle class="cls-1" cx="474.92" cy="285.77" r="15.73"/><line class="cls-1" x1="482.01" y1="280" x2="468.01" y2="280"/><line class="cls-1" x1="482.01" y1="285" x2="468.01" y2="285"/><line class="cls-1" x1="482.01" y1="290" x2="468.01" y2="290"/><rect class="cls-1" x="371.01" y="284" width="9" height="7"/><polyline class="cls-1" points="374.01 278 365.01 278 365.01 285 368.01 285"/><line class="cls-1" x1="630.01" y1="240" x2="853.01" y2="240"/><polyline class="cls-1" points="607.01 161.92 607.01 129 852.01 129"/><polyline class="cls-1" points="245.01 161.92 245.01 125 0.01 125"/><polyline class="cls-1" points="607.01 358 607.01 723.32 852.01 723.32"/><polyline class="cls-1" points="557.01 265.18 557.01 1 853.01 1"/><line class="cls-1" x1="475.01" y1="270" x2="475.01" y2="1"/><polyline class="cls-1" points="473.01 385.71 421.01 385.71 421.01 725 1.01 725"/><line class="cls-1" x1="372.01" y1="270" x2="372.01" y2="1"/><polyline class="cls-1" points="852.01 502 652.01 502 652.01 313"/><line class="cls-1" x1="0.01" y1="289" x2="201.01" y2="287"/><line class="cls-1" x1="0.01" y1="403" x2="280.01" y2="401"/></g></g></svg>