<svg xmlns="http://www.w3.org/2000/svg" viewBox="0 0 43.86 75.54"><defs><style>.cls-1{fill:none;stroke:#fff;stroke-linecap:round;stroke-linejoin:round;stroke-width:4px;}.cls-2{fill:#fff;}</style></defs><title>Asset 25</title><g id="Layer_2" data-name="Layer 2"><g id="view_room" data-name="view / room"><path class="cls-1" d="M2.2,2H40.66a1.21,1.21,0,0,1,1.2,1.21V61.59a1.21,1.21,0,0,1-1.2,1.21H31.19A1.21,1.21,0,0,1,30,61.59V14.48a1.2,1.2,0,0,0-.75-1.11l-21.67-9C6.35,3.81.88,2,2.2,2Z"/><path class="cls-2" d="M28.05,13.43,3,3C1.8,2.52.54,1,.54,2.2V62.48a1.75,1.75,0,0,0,1,1.59l25.1,11.31a1.74,1.74,0,0,0,2.46-1.59V15A1.75,1.75,0,0,0,28.05,13.43Zm-4.16,35a.91.91,0,0,1,0,1.82H20.27a.91.91,0,0,1-.91-.91V34.61a.9.9,0,0,1,.91-.9h3.62a.91.91,0,1,1,0,1.81H21.18V48.4Z"/></g></g></svg>