<svg xmlns="http://www.w3.org/2000/svg" viewBox="0 0 83.14 83.5"><defs><style>.cls-1{fill:#fff;}.cls-2{fill:none;stroke:#fff;stroke-linecap:round;stroke-miterlimit:10;stroke-width:7px;}</style></defs><title>Asset 46</title><g id="Layer_2" data-name="Layer 2"><g id="tv_icon" data-name="tv icon"><path class="cls-1" d="M0,27.07v53.4a3,3,0,0,0,3,3H80.11a3,3,0,0,0,3-3V27.07a3,3,0,0,0-3-3H3A3,3,0,0,0,0,27.07ZM62.89,73.23H12.3a3,3,0,0,1-3-3V37a3,3,0,0,1,3-3H62.89a3,3,0,0,1,3,3v33.2A3,3,0,0,1,62.89,73.23ZM74.86,63a4,4,0,1,1,4-4A4,4,0,0,1,74.86,63Zm0-17.55a4,4,0,1,1,4-4A4,4,0,0,1,74.86,45.41Z"/><polyline class="cls-2" points="13.25 4 24.35 26.02 36.1 3.5"/></g></g></svg>