<svg xmlns="http://www.w3.org/2000/svg" viewBox="0 0 47.16 76.44"><defs><style>.cls-1{fill:none;stroke:#fff;stroke-linejoin:round;stroke-width:4px;}.cls-2{fill:#fff;}</style></defs><title>Layer 15</title><g id="Layer_2" data-name="Layer 2"><g id="view_room" data-name="view / room"><g id="Layer_15" data-name="Layer 15"><path class="cls-1" d="M22.28,2.84,2.12,48.5a1.42,1.42,0,0,0,1.3,2H43.74a1.41,1.41,0,0,0,1.29-2L24.87,2.84A1.42,1.42,0,0,0,22.28,2.84Z"/><path class="cls-2" d="M1.9,50.16c0,12,2.61,26.28,21.51,26.28,20.21,0,21.52-13.8,21.52-26.28ZM15,62.64a4.27,4.27,0,1,1,4.27-4.27A4.27,4.27,0,0,1,15,62.64Zm18.39,0a4.27,4.27,0,1,1,4.27-4.27A4.27,4.27,0,0,1,33.43,62.64Z"/></g></g></g></svg>