# Blender v2.79 (sub 0) OBJ File: 'rocks.blend'
# www.blender.org
mtllib rock_small.mtl
o Sphere.004
v 9.668309 -2.536603 9.330274
v 9.775460 -2.311836 9.657704
v 10.154895 -2.619696 9.636172
v 9.521271 -2.932808 9.638241
v 9.882905 -2.625955 9.816275
v 9.439874 -3.418752 9.478360
v 10.134397 -3.291611 9.690098
v 9.708598 -3.340580 9.765036
v 9.511132 -3.840137 9.565648
v 9.935539 -4.079973 9.576085
v 9.522001 -4.401343 9.352807
v 9.492580 -4.596107 9.044919
v 9.883040 -4.699987 9.280652
v 9.387338 -3.948118 9.264989
v 9.695840 -4.941439 9.039794
v 10.052949 -4.554650 9.114366
v 10.195478 -4.003100 9.294226
v 9.426624 -3.341198 9.259124
v 9.800146 -4.682922 8.761574
v 10.058770 -4.288804 8.909205
v 9.452271 -3.718113 9.022158
v 9.570483 -4.176404 8.833483
v 9.996843 -3.765121 8.864041
v 9.636508 -3.411216 8.958548
v 10.231689 -3.223896 9.201679
v 10.070341 -2.936531 9.095494
v 10.054958 -2.418406 9.425900
v 10.033792 -4.409904 8.880168
v 10.276292 -4.013327 8.513322
v 9.955534 -4.378913 8.511755
v 9.743119 -3.871618 8.369366
v 9.967973 -3.673532 8.218472
v 9.578277 -3.415268 8.418098
v 9.634058 -3.775066 8.598956
v 9.594244 -2.798344 8.428324
v 10.190804 -3.433145 8.332061
v 9.821009 -2.562536 8.236529
v 9.882747 -2.858833 8.153026
v 9.869284 -2.493706 8.473017
v 9.719542 -3.501384 8.790919
v 10.110258 -2.889338 8.474882
v 10.209999 -3.222960 8.622987
v 9.597312 -3.206265 8.623184
v 9.867315 -3.053758 8.803508
v 10.245461 -3.870348 8.792811
v 9.738219 -4.077954 8.748590
v 10.233381 -4.410182 8.723851
v 9.937617 -4.219647 8.478209
v 9.906069 -4.539800 8.699206
v 9.205889 -4.345629 8.867496
v 9.921328 -4.000869 8.733438
v 9.621327 -3.322183 8.489847
v 9.745416 -4.263474 8.966166
v 9.714042 -3.545549 8.797369
v 9.484562 -3.544642 9.012816
v 9.052671 -3.935140 9.008569
v 9.025304 -2.591504 8.809340
v 8.778641 -2.923867 9.007622
v 8.620492 -3.343542 8.930037
v 8.656314 -2.162571 8.680652
v 8.035780 -2.105773 8.689305
v 8.076454 -2.664558 8.647874
v 9.060401 -2.536002 8.454959
v 7.897958 -2.249245 8.365427
v 8.422312 -2.037994 8.198136
v 8.274701 -2.264205 8.015355
v 7.983748 -1.973488 8.217020
v 8.454129 -3.458959 8.591063
v 8.951065 -2.602701 8.139380
v 8.093986 -2.790569 8.253358
v 8.648229 -2.534817 7.990720
v 8.465222 -3.204846 8.102259
v 9.142433 -3.393883 8.037827
v 8.961251 -4.000485 8.209074
v 9.329849 -3.121637 8.205024
v 9.652587 -3.965985 8.240102
v 9.522212 -4.659758 8.583443
v 8.847963 -3.998641 8.557618
vt 0.816365 0.005186
vt 0.803041 0.046475
vt 0.784652 0.018124
vt 0.855434 0.073701
vt 0.878477 0.133760
vt 0.819169 0.136637
vt 0.890705 0.065445
vt 0.755158 0.731341
vt 0.779048 0.642296
vt 0.804642 0.695111
vt 0.725236 0.771287
vt 0.708802 0.733443
vt 0.740285 0.672350
vt 0.751582 0.730539
vt 0.741234 0.594772
vt 0.610099 0.759946
vt 0.588142 0.686121
vt 0.655471 0.712974
vt 0.691456 0.667779
vt 0.712963 0.600975
vt 0.696348 0.604973
vt 0.026113 0.691235
vt 0.076905 0.681036
vt 0.052773 0.734282
vt 0.153324 0.950171
vt 0.138897 0.939519
vt 0.153324 0.916618
vt 0.035756 0.671387
vt 0.095150 0.643335
vt 0.549007 0.752247
vt 0.541781 0.696852
vt 0.123694 0.755814
vt 0.147177 0.695294
vt 0.145843 0.692495
vt 0.135798 0.656642
vt 0.076618 0.797337
vt 0.122754 0.800830
vt 0.526258 0.644570
vt 0.608647 0.621058
vt 0.546422 0.596567
vt 0.323705 0.626943
vt 0.348376 0.670472
vt 0.284826 0.641825
vt 0.375597 0.628500
vt 0.409765 0.639290
vt 0.398574 0.715455
vt 0.325595 0.765286
vt 0.363941 0.788627
vt 0.760227 0.117505
vt 0.782233 0.159523
vt 0.748278 0.155388
vt 0.746338 0.056028
vt 0.752872 0.076193
vt 0.545529 0.834096
vt 0.515466 0.814032
vt 0.543111 0.793263
vt 0.444662 0.748812
vt 0.467828 0.726312
vt 0.466307 0.787429
vt 0.586954 0.080875
vt 0.583673 0.203142
vt 0.547352 0.188381
vt 0.635734 0.220129
vt 0.471271 0.682981
vt 0.454786 0.686056
vt 0.347565 0.828584
vt 0.372886 0.821121
vt 0.368655 0.860617
vt 0.554125 0.256609
vt 0.517366 0.160353
vt 0.703458 0.895085
vt 0.698270 0.828863
vt 0.714236 0.841953
vt 0.557932 0.325035
vt 0.626819 0.325702
vt 0.580761 0.348160
vt 0.528648 0.345781
vt 0.536442 0.406455
vt 0.617518 0.441977
vt 0.511038 0.412158
vt 0.522190 0.374962
vt 0.536376 0.402731
vt 0.657050 0.387171
vt 0.647761 0.456896
vt 0.539186 0.473689
vt 0.617251 0.505028
vt 0.652565 0.506366
vt 0.604424 0.565403
vt 0.217039 0.804972
vt 0.202158 0.855163
vt 0.197589 0.808377
vt 0.112336 0.516741
vt 0.035116 0.468005
vt 0.074971 0.346029
vt 0.158407 0.615165
vt 0.127469 0.605297
vt 0.296804 0.467058
vt 0.349758 0.589624
vt 0.317648 0.594087
vt 0.514545 0.900090
vt 0.527068 0.872287
vt 0.523474 0.925729
vt 0.378653 0.547548
vt 0.721710 0.015306
vt 0.732827 0.085069
vt 0.707461 0.141081
vt 0.436749 0.485595
vt 0.375137 0.522091
vt 0.395103 0.331013
vt 0.274353 0.345211
vt 0.313894 0.289610
vt 0.387420 0.208446
vt 0.465941 0.357470
vt 0.320916 0.125153
vt 0.452197 0.074333
vt 0.272237 0.249748
vt 0.281953 0.151784
vt 0.866564 0.727557
vt 0.840370 0.696647
vt 0.852191 0.629820
vt 0.662367 0.663764
vt 0.058164 0.024717
vt 0.081050 0.081966
vt 0.026550 0.089111
vt 0.117529 0.020208
vt 0.175797 0.075668
vt 0.103697 0.090843
vt 0.216489 0.145982
vt 0.151036 0.179548
vt 0.163325 0.332724
vt 0.870233 0.327003
vt 0.834801 0.360983
vt 0.854321 0.259330
vt 0.241392 0.328232
vt 0.173905 0.353440
vt 0.182406 0.235318
vt 0.033291 0.238236
vt 0.247206 0.490668
vt 0.139071 0.504080
vt 0.213328 0.583614
vt 0.099604 0.847802
vt 0.073376 0.856464
vt 0.092959 0.826809
vt 0.793511 0.729406
vt 0.752455 0.762297
vt 0.853109 0.016645
vt 0.405113 0.816562
vt 0.404649 0.877124
vt 0.386527 0.834445
vt 0.634241 0.766112
vt 0.042937 0.791731
vt 0.959819 0.196203
vt 0.967146 0.177694
vt 0.967146 0.214026
vt 0.119791 0.812543
vt 0.122665 0.758109
vt 0.153668 0.798225
vt 0.938902 0.818902
vt 0.938902 0.871596
vt 0.926453 0.845698
vt 0.890274 0.522620
vt 0.885252 0.566698
vt 0.879656 0.492675
vt 0.294188 0.712697
vt 0.776841 0.455586
vt 0.784551 0.511188
vt 0.755225 0.505806
vt 0.553993 0.023096
vt 0.604653 0.017794
vt 0.534143 0.069959
vt 0.639205 0.082977
vt 0.653504 0.142920
vt 0.539452 0.063705
vt 0.612693 0.176159
vt 0.630067 0.263385
vt 0.565787 0.497122
vt 0.554255 0.536246
vt 0.216390 0.712409
vt 0.193770 0.753739
vt 0.192995 0.689381
vt 0.287484 0.861116
vt 0.258184 0.832222
vt 0.282610 0.813358
vt 0.018953 0.429608
vt 0.426120 0.579686
vt 0.058156 0.502015
vt 0.016838 0.324302
vt 0.486432 0.429833
vt 0.450188 0.491062
vt 0.462491 0.322695
vt 0.500736 0.339993
vt 0.732980 0.324786
vt 0.689799 0.442411
vt 0.709573 0.261935
vt 0.719887 0.456702
vt 0.925133 0.683085
vt 0.938652 0.660041
vt 0.934538 0.699806
vt 0.384685 0.016314
vt 0.419518 0.005042
vt 0.687170 0.543857
vt 0.094352 0.043537
vt 0.846826 0.182227
vt 0.873676 0.233011
vt 0.862433 0.418326
vt 0.919716 0.536292
vt 0.900347 0.513315
vt 0.919320 0.474168
vt 0.175727 0.936956
vt 0.183587 0.963937
vt 0.169944 0.963937
vn -0.9251 0.3773 0.0437
vn 0.5506 0.0501 0.8333
vn 0.1850 -0.1151 0.9760
vn -0.7100 -0.1099 0.6955
vn -0.9944 0.0652 0.0832
vn -0.7318 0.0174 0.6813
vn -0.9131 -0.0712 0.4015
vn -0.1912 -0.2977 0.9353
vn 0.7429 -0.2756 0.6100
vn -0.2200 -0.3496 0.9107
vn -0.8852 -0.1799 0.4291
vn -0.1627 -0.4132 0.8960
vn -0.7961 -0.4742 0.3760
vn -0.2977 -0.5486 0.7813
vn -0.9426 -0.2340 0.2381
vn 0.7917 -0.3645 0.4903
vn -0.6808 -0.3915 -0.6190
vn -0.6938 -0.2171 -0.6866
vn -0.9338 -0.0993 -0.3438
vn 0.8144 -0.3656 -0.4506
vn 0.9563 -0.0779 -0.2818
vn 0.7888 0.0404 -0.6134
vn 0.0393 0.1579 -0.9867
vn -0.7396 0.3214 -0.5913
vn -0.7555 0.2793 -0.5926
vn -0.1414 0.3916 -0.9092
vn 0.0437 0.5381 -0.8418
vn 0.8413 0.3082 -0.4442
vn -0.1237 0.8365 -0.5338
vn -0.9529 0.2931 -0.0779
vn -0.8748 -0.0636 0.4802
vn -0.2753 -0.3649 -0.8894
vn -0.5000 -0.0886 -0.8615
vn -0.9841 -0.0705 0.1632
vn -0.9974 0.0247 0.0674
vn 0.4723 -0.0214 -0.8812
vn -0.8654 -0.0770 0.4951
vn -0.6820 0.0632 -0.7286
vn -0.7382 0.6731 -0.0452
vn 0.7892 0.3133 -0.5282
vn -0.5760 0.4169 0.7031
vn 0.8127 0.4936 -0.3096
vn 0.7999 0.2605 -0.5407
vn 0.6360 0.3905 0.6656
vn -0.6150 0.1814 0.7674
vn 0.9590 0.1958 -0.2047
vn -0.4048 0.0020 0.9144
vn 0.6125 -0.1136 0.7823
vn -0.7003 -0.7138 0.0096
vn 0.0002 -0.6948 0.7192
vn -0.0285 -0.6861 0.7270
vn 0.9188 0.3267 -0.2214
vn 0.8272 -0.0589 0.5588
vn 0.9111 0.4114 0.0241
vn 0.0367 -0.0514 0.9980
vn 0.6166 0.4369 0.6549
vn 0.7528 0.5191 -0.4048
vn 0.7972 0.5767 0.1785
vn 0.8001 0.5755 0.1694
vn 0.1659 0.4115 0.8962
vn 0.7194 0.6718 0.1765
vn 0.0920 0.9740 0.2068
vn 0.6393 0.7605 -0.1137
vn 0.6596 0.6558 -0.3671
vn 0.4682 0.5132 -0.7193
vn 0.0549 0.6056 -0.7939
vn 0.9811 -0.0189 0.1928
vn -0.9331 -0.3526 0.0712
vn 0.7705 0.5149 -0.3758
vn -0.6440 -0.1205 -0.7555
vn -0.2856 -0.3117 -0.9062
vn -0.7487 -0.5217 -0.4091
vn 0.4694 0.2232 -0.8543
vn -0.1544 -0.2254 -0.9619
vn -0.7888 -0.5599 -0.2534
vn -0.6792 -0.7011 -0.2170
vn 0.0572 -0.2870 -0.9562
vn 0.0625 -0.4521 -0.8898
vn 0.2833 -0.4676 -0.8373
vn 0.3938 -0.5481 -0.7379
vn 0.7477 0.2714 -0.6060
vn 0.4630 0.5205 0.7174
vn -0.9858 0.1304 0.1057
vn -0.5682 0.2076 0.7963
vn -0.4772 0.0535 0.8771
vn 0.1911 -0.1875 0.9635
vn 0.7355 -0.3412 0.5853
vn 0.7292 -0.6157 -0.2987
vn 0.7156 -0.6860 0.1316
vn -0.9242 -0.0206 -0.3814
vn 0.9614 -0.1809 -0.2071
vn -0.9772 0.0613 -0.2033
vn 0.5113 -0.0136 -0.8593
vn -0.5754 0.1800 -0.7978
vn -0.1239 0.1363 -0.9829
vn 0.0107 0.2681 -0.9633
vn 0.7000 0.1338 -0.7015
vn 0.9445 0.2623 -0.1978
vn 0.5930 0.7035 0.3916
vn -0.0574 -0.9958 -0.0716
vn 0.5111 -0.4453 -0.7352
vn -0.7634 -0.6367 0.1086
vn -0.8681 -0.4251 -0.2563
vn 0.4102 -0.3563 -0.8395
vn 0.5820 -0.1631 -0.7966
vn -0.8719 -0.4305 -0.2331
vn -0.9053 -0.2943 -0.3063
vn -0.5154 -0.1221 -0.8482
vn -0.6868 0.0298 -0.7263
vn -0.6453 0.3253 0.6912
vn 0.5817 0.4690 0.6646
vn 0.5428 0.2408 0.8046
vn 0.9851 0.1019 -0.1386
vn 0.9947 0.0734 0.0722
vn 0.1998 0.0797 0.9766
vn 0.1237 -0.0687 0.9899
vn 0.9909 -0.0387 0.1291
vn -0.7758 -0.5814 0.2452
vn 0.9951 -0.0341 0.0927
vn -0.7233 -0.4500 0.5237
vn 0.6605 0.1991 0.7239
vn -0.1143 -0.3608 0.9256
vn -0.7244 -0.4611 0.5125
vn 0.6714 0.1973 0.7143
vn -0.0086 -0.0014 1.0000
vn -0.2750 -0.0736 0.9586
vn 0.2821 0.3284 0.9014
vn -0.4541 0.0064 0.8909
vn -0.4826 -0.0996 0.8702
vn 0.0494 0.4008 0.9148
vn -0.7622 -0.3988 0.5099
vn 0.1514 0.9560 0.2511
vn -0.8965 0.3910 0.2083
vn -0.8996 -0.0971 0.4258
vn -0.7358 -0.1288 -0.6648
vn -0.8960 -0.4330 0.0985
vn 0.2921 0.4785 -0.8281
vn 0.4515 0.2202 -0.8647
vn -0.7894 -0.5564 -0.2593
vn -0.4133 -0.0386 -0.9098
vn -0.1294 -0.1283 -0.9833
vn 0.5154 0.1620 -0.8415
vn 0.7611 0.2664 -0.5914
usemtl None
s off
f 4/1/1 2/2/1 1/3/1
f 5/4/2 7/5/2 3/6/2
f 5/4/3 8/7/3 7/5/3
f 6/8/4 8/9/4 4/10/4
f 6/8/5 18/11/5 14/12/5
f 6/8/6 9/13/6 8/9/6
f 6/14/7 14/12/7 9/13/7
f 8/9/8 9/13/8 10/15/8
f 10/16/9 17/17/9 7/18/9
f 9/13/10 11/19/10 10/15/10
f 14/12/11 11/19/11 9/13/11
f 10/20/12 11/19/12 13/21/12
f 11/22/13 12/23/13 15/24/13
f 11/25/14 15/26/14 13/27/14
f 11/28/15 14/29/15 12/23/15
f 17/17/16 13/30/16 16/31/16
f 12/23/17 19/32/17 15/24/17
f 12/23/18 22/33/18 19/32/18
f 22/34/19 14/29/19 21/35/19
f 16/36/20 19/32/20 20/37/20
f 20/38/21 25/39/21 17/17/21
f 20/38/22 23/40/22 25/39/22
f 22/41/23 24/42/23 19/43/23
f 21/44/24 18/45/24 24/42/24
f 18/45/25 1/46/25 24/42/25
f 24/42/26 1/46/26 26/47/26
f 26/47/27 1/46/27 27/48/27
f 27/49/28 25/50/28 26/51/28
f 1/52/29 2/2/29 27/53/29
f 18/54/30 4/55/30 1/56/30
f 40/57/31 34/58/31 46/59/31
f 30/60/32 31/61/32 32/62/32
f 31/61/33 33/63/33 32/62/33
f 33/64/34 34/58/34 43/65/34
f 33/66/35 43/67/35 35/68/35
f 32/62/36 38/69/36 36/70/36
f 34/58/37 40/57/37 43/65/37
f 35/71/38 37/72/38 38/73/38
f 37/74/39 35/75/39 39/76/39
f 38/77/40 37/74/40 41/78/40
f 35/75/41 44/79/41 39/76/41
f 37/74/42 39/76/42 41/78/42
f 41/78/43 36/80/43 38/81/43
f 39/76/44 44/79/44 41/82/44
f 43/83/45 40/84/45 44/79/45
f 36/80/46 41/78/46 42/85/46
f 44/86/47 46/87/47 28/88/47
f 45/89/48 28/90/48 47/91/48
f 77/92/49 50/93/49 78/94/49
f 49/95/50 53/96/50 77/92/50
f 77/92/51 53/96/51 50/93/51
f 52/97/52 51/98/52 48/99/52
f 49/100/53 51/101/53 53/102/53
f 52/97/54 54/103/54 51/98/54
f 53/104/55 55/105/55 56/106/55
f 55/107/56 54/108/56 57/109/56
f 52/97/57 75/110/57 63/111/57
f 52/97/58 63/111/58 54/108/58
f 54/108/59 63/111/59 57/109/59
f 57/109/60 60/112/60 58/113/60
f 57/109/61 63/111/61 60/112/61
f 60/112/62 65/114/62 61/115/62
f 60/112/63 63/111/63 65/114/63
f 63/111/64 69/116/64 65/114/64
f 65/114/65 69/116/65 71/117/65
f 65/118/66 66/119/66 67/120/66
f 7/18/67 17/17/67 25/39/67 3/121/67
f 64/122/68 70/123/68 62/124/68
f 63/111/69 75/110/69 69/116/69
f 67/125/70 66/126/70 70/127/70
f 66/126/71 71/128/71 70/127/71
f 70/123/72 72/129/72 74/130/72
f 69/131/73 73/132/73 71/133/73
f 73/134/74 74/135/74 72/136/74
f 74/130/75 78/94/75 68/137/75
f 74/130/76 77/92/76 78/94/76
f 73/134/77 76/138/77 74/130/77
f 74/130/78 76/138/78 77/139/78
f 76/138/79 48/140/79 77/139/79
f 48/140/80 49/95/80 77/139/80
f 76/141/81 52/142/81 48/143/81
f 2/2/82 5/4/82 3/6/82
f 4/144/83 18/145/83 6/8/83
f 5/4/84 2/2/84 4/146/84
f 5/147/85 4/148/85 8/149/85
f 7/18/86 8/150/86 10/16/86
f 17/17/87 10/16/87 13/30/87
f 15/24/88 19/32/88 16/36/88
f 13/151/89 15/24/89 16/36/89
f 12/23/90 14/29/90 22/34/90
f 17/17/91 16/31/91 20/38/91
f 14/152/92 18/153/92 21/154/92
f 20/155/93 19/156/93 23/157/93
f 22/158/94 21/159/94 24/160/94
f 19/161/95 24/162/95 23/163/95
f 23/164/96 24/42/96 26/47/96
f 23/165/97 26/166/97 25/167/97
f 25/50/98 27/49/98 3/6/98
f 27/49/99 2/2/99 3/6/99
f 47/168/100 28/169/100 30/60/100
f 47/168/101 30/60/101 29/170/101
f 30/60/102 28/169/102 46/171/102
f 30/60/103 46/171/103 34/172/103
f 29/173/104 30/60/104 32/62/104
f 36/70/105 29/173/105 32/62/105
f 30/60/106 34/172/106 31/174/106
f 31/174/107 34/172/107 33/63/107
f 32/62/108 33/63/108 38/69/108
f 38/69/109 33/63/109 35/175/109
f 35/75/110 43/83/110 44/79/110
f 41/78/111 44/79/111 42/176/111
f 42/176/112 44/79/112 45/177/112
f 42/178/113 29/179/113 36/180/113
f 42/178/114 45/89/114 29/179/114
f 45/177/115 44/86/115 28/88/115
f 40/84/116 46/87/116 44/86/116
f 45/89/117 47/91/117 29/179/117
f 78/94/118 50/93/118 68/137/118
f 48/181/119 51/182/119 49/183/119
f 68/137/120 50/93/120 56/184/120
f 53/185/121 51/98/121 54/108/121
f 50/93/122 53/186/122 56/184/122
f 68/137/123 56/184/123 59/187/123
f 53/185/124 54/108/124 55/107/124
f 56/188/125 55/189/125 58/190/125
f 59/191/126 56/188/126 58/190/126
f 58/113/127 55/107/127 57/109/127
f 58/192/128 62/193/128 59/194/128
f 62/193/129 58/192/129 61/195/129
f 58/190/130 60/112/130 61/115/130
f 59/196/131 62/197/131 68/198/131
f 61/115/132 65/114/132 67/199/132
f 61/115/133 67/199/133 64/200/133
f 61/195/134 64/201/134 62/193/134
f 64/122/135 67/202/135 70/123/135
f 68/137/136 62/124/136 70/123/136
f 66/203/137 65/204/137 71/133/137
f 69/131/138 75/205/138 73/132/138
f 68/137/139 70/123/139 74/130/139
f 70/127/140 71/128/140 72/129/140
f 71/128/141 73/134/141 72/136/141
f 73/206/142 75/207/142 76/208/142
f 76/209/143 75/210/143 52/211/143
