<svg xmlns="http://www.w3.org/2000/svg" viewBox="0 0 57.27 58.1"><defs><style>.cls-1{fill:none;stroke:#fff;stroke-miterlimit:10;stroke-width:3px;}</style></defs><title>Fish (2)</title><g id="Layer_2" data-name="Layer 2"><g id="ingredients"><g id="Fish"><path class="cls-1" d="M36.84,19.9S42.33,11,38.74,7.45A39.48,39.48,0,0,0,32,2a26.39,26.39,0,0,0-4.65,18.79S15.73,20.11,9,26.87-.95,43.13,3.7,55l8.65-5.07L7.92,56.21s10.77,1.9,18-2.74S36,42.49,36.63,37.64a29.66,29.66,0,0,0,0-8.36s5.28,4.13,18.58-4.73c0,0-3.8-5.91-6.76-8s-7,.63-7,.63Z"/><circle class="cls-1" cx="6.23" cy="44.39" r="2.96"/></g></g></g></svg>