<svg xmlns="http://www.w3.org/2000/svg" viewBox="0 0 58.52 58.53"><defs><style>.cls-1{fill:none;stroke:#fff;stroke-linecap:round;stroke-linejoin:round;stroke-width:3px;}</style></defs><title>Mushroom</title><g id="Layer_2" data-name="Layer 2"><g id="ingredients"><g id="Mushroom"><path class="cls-1" d="M29.87,1.53s-4.17,0-14.37,15.11A23.75,23.75,0,0,1,5.07,24.7C-1.66,27.21,2.28,32,7.38,34S23.61,38.54,44,35.77c0,0,7.65-1,12.75-5.79,0,0,1.4-2.77-2.31-6s-10.2-7.8-11.36-9.06S35.59,5.4,35,4.05A5.3,5.3,0,0,0,29.87,1.53Z"/><path class="cls-1" d="M26.86,37s1.62,6.8-.7,10.58c-1.63,2.66-3.9,4.69-4.95,6a1.15,1.15,0,0,0,.33,1.73,17.29,17.29,0,0,0,14.82.08s2.79-2.26,2.79-9.06S37.29,37.79,36.6,37,26.86,37,26.86,37Z"/><ellipse class="cls-1" cx="16.53" cy="26.27" rx="5.43" ry="4.27" transform="translate(-14.34 29.5) rotate(-63.78)"/><ellipse class="cls-1" cx="38.68" cy="26.58" rx="4.4" ry="5.16"/><ellipse class="cls-1" cx="32.3" cy="11.64" rx="3.61" ry="5.13" transform="translate(-2.03 11.08) rotate(-18.89)"/></g></g></g></svg>