<svg xmlns="http://www.w3.org/2000/svg" viewBox="0 0 53.55 58.43"><defs><style>.cls-1{fill:none;stroke:#fff;stroke-linecap:round;stroke-linejoin:round;stroke-width:3px;}</style></defs><title>Pepper</title><g id="Layer_2" data-name="Layer 2"><g id="ingredients"><g id="Pepper"><path class="cls-1" d="M20,14.28S13.24,9,8.23,12.78s-7.51,5.75-6.51,16C2.48,36.54,6.82,46.59,8.89,51a5.52,5.52,0,0,0,5.26,3.24c1.39-.07,4.55-.67,5.35-2.47"/><path class="cls-1" d="M33.55,14.28S40.31,9,45.32,12.78s7.51,5.75,6.51,16c-.76,7.76-5.1,17.81-7.17,22.24a5.51,5.51,0,0,1-5.26,3.24c-1.39-.07-5.55-.67-6.35-2.47"/><path class="cls-1" d="M26.38,16.16a16.46,16.46,0,0,0-6.31,1c-6.28,2.2-2.19,35.25,1.5,37.76,3.31,2.25,4.81,2,4.81,2"/><path class="cls-1" d="M26.33,16.16a16.46,16.46,0,0,1,6.31,1c6.28,2.2,2.19,35.25-1.5,37.76-3.31,2.25-4.81,2-4.81,2"/><path class="cls-1" d="M26.4,15.91h0c-.27,0-3.79.25-5,.25a1.09,1.09,0,0,1-1-1.75c.43-.43,3.83-.68,4.77-.74a.26.26,0,0,0,.24-.25c0-1.38.38-8.35,6.2-11.55a3,3,0,0,1,2.86,0l.69.38a1.29,1.29,0,0,1-.21,2.35,10.7,10.7,0,0,0-7.24,8.8.25.25,0,0,0,.21.3l5.14.94a.23.23,0,0,1,.18.12c.24.4,1,1.85-1.07,1.65C29.74,16.17,26.65,15.93,26.4,15.91Z"/><path class="cls-1" d="M18.37,12.66s1.25-3.76,3.26-4.51a21.88,21.88,0,0,1,4.75-1"/><path class="cls-1" d="M30.31,7.74l1.58.66s2,.5,2.76,4.76"/></g></g></g></svg>