<svg xmlns="http://www.w3.org/2000/svg" viewBox="0 0 52.88 58.21"><defs><style>.cls-1{fill:none;stroke:#fff;stroke-miterlimit:10;stroke-width:3px;}</style></defs><title>Pumpkin</title><g id="Layer_2" data-name="Layer 2"><g id="ingredients"><g id="Pumpkin"><path class="cls-1" d="M26.63,12.78s-4.95-.82-6,3.1-5.36,20.82,0,39c0,0,.93,1.86,6,1.86"/><path class="cls-1" d="M21.17,13.4a7.84,7.84,0,0,0-8.36,3.3c-3.19,4.75-4.53,20.73-2.16,28.46s3.54,8.76,4.66,10.21,5.81,0,5.81,0"/><path class="cls-1" d="M12.92,15.57s-4.64.31-8.15,6.29S-.69,40.62,5.6,48.35s8.32,5.12,8.32,5.12"/><path class="cls-1" d="M26.24,12.78s5-.82,6,3.1,5.37,20.82,0,39c0,0-.92,1.86-6,1.86"/><path class="cls-1" d="M31.71,13.4a7.83,7.83,0,0,1,8.35,3.3c3.2,4.75,4.54,20.73,2.17,28.46s-3.54,8.76-4.66,10.21-5.82,0-5.82,0"/><path class="cls-1" d="M40,15.57s4.64.31,8.14,6.29,5.47,18.76-.82,26.49S39,53.47,39,53.47"/><path class="cls-1" d="M28.18,12.71S29.93,4.33,25.7,1.55c0,0-3,.31-3.37,2.88,0,0,4.07,3.47,3.1,8.28"/></g></g></g></svg>