<svg xmlns="http://www.w3.org/2000/svg" viewBox="0 0 57.32 58.68"><defs><style>.cls-1{fill:none;stroke:#604343;stroke-linecap:round;stroke-linejoin:round;stroke-width:3px;}</style></defs><title>Asset 27</title><g id="Layer_2" data-name="Layer 2"><g id="ingredients"><path class="cls-1" d="M3.53,25.15l51.77.51a.3.3,0,0,0,.16-.05c.25-.19.9-1-.59-3.77C53.09,18.54,42.92,9.89,30.2,9.89S6.3,15.49,2,22.1c0,0-1.77,2.53,1.5,3Z"/><path class="cls-1" d="M29.19,9.38s1-7.88,3.56-7.88h1.8a.5.5,0,0,1,.34.86,12.69,12.69,0,0,0-3.68,7.05.49.49,0,0,1-.48.4H28.59"/><path class="cls-1" d="M6.39,25.57s-2.63,25,22.22,31.6h.13c1.36-.31,23.73-5.77,22.91-31.09"/></g></g></svg>